<svg width="26" height="21" viewBox="0 0 26 21" fill="none" xmlns="http://www.w3.org/2000/svg">
<path d="M21.4702 5.6171C21.3525 7.76165 19.5486 9.40634 17.441 9.29064C16.7746 9.25405 16.1577 9.04585 15.6293 8.71043C15.5876 8.68397 15.5724 8.6315 15.5924 8.58635C16.1024 7.43408 16.7611 4.69138 15.5956 2.23928C15.5741 2.19403 15.5883 2.13922 15.6306 2.11227C16.2764 1.70013 17.049 1.47963 17.8674 1.52456C19.9749 1.64026 21.588 3.47256 21.4702 5.6171Z" fill="black" stroke="black" stroke-width="2" stroke-linecap="round"/>
<path d="M17.8411 12.6C21.3224 12.6 24.1494 15.9736 24.1993 19.6998C24.2001 19.755 24.1552 19.8 24.1 19.8H19.1C19.0448 19.8 19 19.7544 18.9998 19.6991C18.9879 17.0054 18.4926 15.512 16.6851 12.8544C16.6451 12.7955 16.6767 12.7136 16.7467 12.7006C17.1023 12.6345 17.4679 12.6 17.8411 12.6Z" fill="black" stroke="black" stroke-width="2" stroke-linecap="round"/>
<path d="M11.976 5.28802C11.976 7.43531 10.2353 9.17602 8.08801 9.17602C5.94073 9.17602 4.20001 7.43531 4.20001 5.28802C4.20001 3.14074 5.94073 1.40002 8.08801 1.40002C10.2353 1.40002 11.976 3.14074 11.976 5.28802Z" fill="black" stroke="black" stroke-width="2"/>
<path d="M15.3906 19.4298C15.401 19.634 15.2342 19.8 15.0296 19.8H8.2H1.37037C1.16582 19.8 0.999007 19.634 1.00936 19.4298C1.20207 15.6254 4.34773 12.6 8.2 12.6C12.0523 12.6 15.1979 15.6254 15.3906 19.4298Z" fill="black" stroke="black" stroke-width="2"/>
</svg>
