<svg width="22" height="22" viewBox="0 0 22 22" fill="none" xmlns="http://www.w3.org/2000/svg">
<path d="M2.53846 3.30765C2.13043 3.30765 1.73912 3.46974 1.4506 3.75825C1.16209 4.04677 1 4.43808 1 4.84611V19.4615C1 19.8695 1.16209 20.2609 1.4506 20.5493C1.73912 20.8378 2.13043 21 2.53846 21H19.4615C19.8695 21 20.2609 20.8378 20.5494 20.5493C20.8378 20.2609 21 19.8695 21 19.4615V4.84611C21 4.43808 20.8378 4.04677 20.5494 3.75825C20.2609 3.46974 19.8695 3.30765 19.4615 3.30765H16.3846" stroke="#D1D1D1" stroke-width="1.65755" stroke-linecap="round" stroke-linejoin="round"/>
<path d="M5.61539 0.999969V5.61535" stroke="#D1D1D1" stroke-width="1.65755" stroke-linecap="round" stroke-linejoin="round"/>
<path d="M16.3846 0.999969V5.61535" stroke="#D1D1D1" stroke-width="1.65755" stroke-linecap="round" stroke-linejoin="round"/>
<path d="M2.78474 3.26797H17.2822" stroke="#D1D1D1" stroke-width="1.65755" stroke-linecap="round" stroke-linejoin="round"/>
<path d="M14.9083 10.0837C15.2988 10.4742 15.2988 11.1074 14.9083 11.4979L9.49739 16.9087C9.34281 17.0633 9.14182 17.163 8.9252 17.1925L7.69407 17.3601C7.03702 17.4496 6.47644 16.8864 6.56893 16.2298L6.74291 14.9945C6.77313 14.7799 6.87223 14.581 7.02528 14.4276L12.4251 9.01626C12.8155 8.62503 13.4493 8.62469 13.8401 9.01551L14.9083 10.0837Z" stroke="#D1D1D1" stroke-width="1.65755" stroke-linecap="round" stroke-linejoin="round"/>
</svg>
