<svg width="48" height="42" viewBox="0 0 48 42" fill="none" xmlns="http://www.w3.org/2000/svg">
<mask id="path-1-outside-1_494_3072" maskUnits="userSpaceOnUse" x="5.3105" y="-2.36016" width="45.7372" height="47.0505" fill="black">
<rect fill="white" x="5.3105" y="-2.36016" width="45.7372" height="47.0505"/>
<path fill-rule="evenodd" clip-rule="evenodd" d="M34.3112 7.2939C33.9132 7.09036 33.6969 6.65519 33.6766 6.20859C33.6538 5.7047 33.5257 5.19747 33.2821 4.71866C32.3664 2.91905 30.1652 2.20248 28.3656 3.11814C27.6814 3.46628 27.1538 4.00023 26.8129 4.62729C26.6074 5.00522 26.2424 5.29117 25.8137 5.32613C24.4542 5.43699 23.1191 5.78827 21.8487 6.43463C20.3926 7.17554 19.1799 8.20704 18.1882 9.43621C17.8868 9.80977 17.375 9.93733 16.9048 9.84121C16.1229 9.6814 15.2835 9.77528 14.517 10.1653C12.7174 11.081 12.0008 13.2821 12.9165 15.0817C13.2192 15.6767 13.6625 16.1534 14.1854 16.4917C14.6001 16.7602 14.8836 17.2283 14.8095 17.7167C14.1347 22.1646 14.7764 26.7985 16.29 29.7733C18.9842 35.0683 29.597 37.8725 36.1486 34.5389C38.8819 33.1482 41.1329 30.6642 42.6176 27.8272C42.9446 27.2025 42.4824 26.4839 41.7774 26.4908C40.2092 26.5061 38.4179 26.5905 36.5818 26.677C30.8392 26.9476 24.6589 27.2388 23.5 25.5005C22.0044 23.2571 31.4215 16.1549 37.2969 11.7238L37.2969 11.7238C37.5406 11.5401 37.7781 11.3609 38.0086 11.1869C38.5184 10.8018 38.5389 10.0435 38.0319 9.65472C36.8842 8.7746 35.6294 7.96796 34.3112 7.2939Z"/>
</mask>
<path d="M36.5818 26.677L36.4876 24.6792L36.4876 24.6792L36.5818 26.677ZM23.5 25.5005L25.1641 24.3911L25.1641 24.3911L23.5 25.5005ZM37.2969 11.7238L38.5011 13.3206L38.5566 13.2788L38.6091 13.2332L37.2969 11.7238ZM37.2969 11.7238L36.0926 10.127L36.0371 10.1689L35.9847 10.2145L37.2969 11.7238ZM38.0086 11.1869L36.8032 9.59086L38.0086 11.1869ZM38.0319 9.65472L39.249 8.06767L38.0319 9.65472ZM16.9048 9.84121L17.3053 7.88172L16.9048 9.84121ZM14.1854 16.4917L13.0987 18.1708L14.1854 16.4917ZM14.8095 17.7167L12.8321 17.4168L14.8095 17.7167ZM25.8137 5.32613L25.9762 7.31952L25.8137 5.32613ZM42.6176 27.8272L44.3896 28.7546L42.6176 27.8272ZM41.7774 26.4908L41.7969 28.4907L41.7774 26.4908ZM33.6766 6.20859L31.6787 6.2993L33.6766 6.20859ZM34.3112 7.2939L35.2218 5.51319L34.3112 7.2939ZM31.4995 5.62563C31.6116 5.84579 31.6685 6.07408 31.6787 6.2993L35.6746 6.11788C35.6391 5.33532 35.4398 4.54914 35.0646 3.81168L31.4995 5.62563ZM29.2726 4.90067C30.0878 4.48591 31.0848 4.81049 31.4995 5.62563L35.0646 3.81168C33.648 1.02762 30.2427 -0.0809562 27.4587 1.33562L29.2726 4.90067ZM28.57 5.58259C28.7238 5.29953 28.9603 5.05959 29.2726 4.90067L27.4587 1.33562C26.4026 1.87296 25.5837 2.70093 25.0558 3.67199L28.57 5.58259ZM22.7557 8.21715C23.7767 7.69765 24.8562 7.41085 25.9762 7.31952L25.6511 3.33275C24.0521 3.46314 22.4614 3.8789 20.9418 4.6521L22.7557 8.21715ZM19.7448 10.692C20.5771 9.66044 21.5746 8.81811 22.7557 8.21715L20.9418 4.6521C19.2106 5.53297 17.7827 6.75365 16.6316 8.18039L19.7448 10.692ZM15.424 11.9478C15.7729 11.7703 16.1497 11.7282 16.5043 11.8007L17.3053 7.88172C16.0961 7.63457 14.7941 7.78029 13.61 8.38278L15.424 11.9478ZM14.699 14.1748C14.2843 13.3596 14.6088 12.3626 15.424 11.9478L13.61 8.38278C10.826 9.79935 9.71738 13.2046 11.134 15.9887L14.699 14.1748ZM15.272 14.8127C15.0371 14.6607 14.8376 14.4472 14.699 14.1748L11.134 15.9887C11.6008 16.9063 12.2879 17.646 13.0987 18.1708L15.272 14.8127ZM18.0726 28.8663C16.7887 26.3431 16.1599 22.1496 16.7868 18.0167L12.8321 17.4168C12.1096 22.1796 12.7641 27.254 14.5075 30.6803L18.0726 28.8663ZM35.2416 32.7564C32.5148 34.1439 28.7466 34.3182 25.255 33.4508C21.7028 32.5684 19.0412 30.77 18.0726 28.8663L14.5075 30.6803C16.2331 34.0716 20.225 36.3228 24.2906 37.3328C28.4168 38.3579 33.2309 38.2675 37.0556 36.3215L35.2416 32.7564ZM40.8456 26.8998C39.5094 29.453 37.5283 31.5929 35.2416 32.7564L37.0556 36.3215C40.2354 34.7035 42.7563 31.8755 44.3896 28.7546L40.8456 26.8998ZM36.6759 28.6748C38.5222 28.5878 40.2735 28.5055 41.7969 28.4907L41.7579 24.4909C40.145 24.5066 38.3136 24.5932 36.4876 24.6792L36.6759 28.6748ZM21.8359 26.6099C22.5591 27.6947 23.8014 28.1558 24.7296 28.3933C25.7557 28.6559 26.9733 28.7822 28.2302 28.84C30.7506 28.9558 33.8339 28.8087 36.6759 28.6748L36.4876 24.6792C33.5871 24.8159 30.709 24.9497 28.4138 24.8442C27.2629 24.7913 26.3593 24.6814 25.7212 24.5182C24.9852 24.3298 25.0203 24.1754 25.1641 24.3911L21.8359 26.6099ZM36.0926 10.127C33.1728 12.3291 29.2754 15.2666 26.2969 17.9455C24.8198 19.274 23.4724 20.6233 22.5813 21.8479C22.1413 22.4528 21.7267 23.1418 21.5075 23.869C21.2843 24.6096 21.1968 25.6512 21.8359 26.6099L25.1641 24.3911C25.4293 24.7889 25.3089 25.1178 25.3374 25.0233C25.3699 24.9154 25.4916 24.6469 25.8158 24.2012C26.4535 23.3248 27.5471 22.2009 28.9718 20.9196C31.7968 18.3788 35.5456 15.5496 38.5011 13.3206L36.0926 10.127ZM35.9847 10.2145L35.9847 10.2145L38.6091 13.2332L38.6091 13.2332L35.9847 10.2145ZM36.8032 9.59086C36.5734 9.76443 36.3364 9.94319 36.0926 10.127L38.5012 13.3206C38.7447 13.1369 38.9828 12.9574 39.2139 12.7828L36.8032 9.59086ZM33.4007 9.0746C34.603 9.68938 35.7558 10.4296 36.8148 11.2418L39.249 8.06767C38.0127 7.1196 36.6559 6.24653 35.2218 5.51319L33.4007 9.0746ZM39.2139 12.7828C40.7239 11.6425 40.8583 9.30182 39.249 8.06767L36.8148 11.2418C36.2194 10.7852 36.3129 9.96115 36.8032 9.59086L39.2139 12.7828ZM16.6316 8.18039C16.7654 8.01455 16.925 7.93184 17.041 7.89743C17.1506 7.86493 17.239 7.86816 17.3053 7.88172L16.5043 11.8007C17.5255 12.0094 18.8678 11.779 19.7448 10.692L16.6316 8.18039ZM13.0987 18.1708C13.0441 18.1354 12.9761 18.0749 12.918 17.9666C12.8556 17.8502 12.7959 17.6555 12.8321 17.4168L16.7868 18.0167C17.01 16.5456 16.153 15.3828 15.272 14.8127L13.0987 18.1708ZM25.0558 3.67199C25.0997 3.59107 25.2682 3.36398 25.6511 3.33275L25.9762 7.31952C27.2167 7.21836 28.115 6.41937 28.57 5.58259L25.0558 3.67199ZM44.3896 28.7546C45.455 26.719 43.8928 24.47 41.7579 24.4909L41.7969 28.4907C41.0721 28.4977 40.4342 27.686 40.8456 26.8998L44.3896 28.7546ZM31.6787 6.2993C31.7225 7.26402 32.2029 8.46213 33.4007 9.0746L35.2218 5.51319C35.4168 5.6129 35.5359 5.75542 35.5976 5.86574C35.6558 5.96976 35.6718 6.05699 35.6746 6.11788L31.6787 6.2993Z" fill="#D1D1D1" mask="url(#path-1-outside-1_494_3072)"/>
<circle cx="17.2812" cy="13.7838" r="1.18821" transform="rotate(-26.9676 17.2812 13.7838)" fill="#D1D1D1" stroke="#D1D1D1"/>
<circle cx="29.8262" cy="7.40151" r="1.18821" transform="rotate(-26.9676 29.8262 7.40151)" fill="#D1D1D1" stroke="#D1D1D1"/>
<path d="M4.29904 15C2.79904 17 0.0990397 21.9 1.29904 25.5C2.79904 30 13.299 26.5 4.29904 15Z" stroke="#D1D1D1" stroke-width="1.8" stroke-linejoin="round"/>
</svg>
