<svg width="40" height="40" viewBox="0 0 40 40" fill="none" xmlns="http://www.w3.org/2000/svg">
<path d="M13.6329 20.5306C13.3398 20.5306 13.1023 20.2931 13.1023 20C13.1023 19.707 13.3398 19.4694 13.6329 19.4694" stroke="black" stroke-width="1.8" stroke-linecap="round" stroke-linejoin="round"/>
<path d="M13.6329 20.5306C13.9259 20.5306 14.1635 20.2931 14.1635 20C14.1635 19.707 13.9259 19.4694 13.6329 19.4694" stroke="black" stroke-width="1.8" stroke-linecap="round" stroke-linejoin="round"/>
<path d="M20 20.5306C19.707 20.5306 19.4694 20.2931 19.4694 20C19.4694 19.707 19.707 19.4694 20 19.4694" stroke="black" stroke-width="1.8" stroke-linecap="round" stroke-linejoin="round"/>
<path d="M20 20.5306C20.2931 20.5306 20.5306 20.2931 20.5306 20C20.5306 19.707 20.2931 19.4694 20 19.4694" stroke="black" stroke-width="1.8" stroke-linecap="round" stroke-linejoin="round"/>
<path d="M26.3671 20.5306C26.0741 20.5306 25.8365 20.2931 25.8365 20C25.8365 19.707 26.0741 19.4694 26.3671 19.4694" stroke="black" stroke-width="1.8" stroke-linecap="round" stroke-linejoin="round"/>
<path d="M26.3672 20.5306C26.6603 20.5306 26.8978 20.2931 26.8978 20C26.8978 19.707 26.6603 19.4694 26.3672 19.4694" stroke="black" stroke-width="1.8" stroke-linecap="round" stroke-linejoin="round"/>
</svg>
