<svg width="20" height="18" viewBox="0 0 20 18" fill="none" xmlns="http://www.w3.org/2000/svg">
<path d="M11.2053 1.67567C11.0916 1.47229 10.9189 1.30161 10.7062 1.18243C10.4935 1.06325 10.2491 1.00018 9.99981 1.00018C9.75052 1.00018 9.50606 1.06325 9.29337 1.18243C9.08068 1.30161 8.90798 1.47229 8.79433 1.67567L1.34469 15.3333C1.24079 15.5223 1.19132 15.7325 1.20099 15.9441C1.21065 16.1555 1.27912 16.3611 1.39991 16.5415C1.52069 16.7219 1.68977 16.871 1.89109 16.9746C2.09241 17.0783 2.31929 17.133 2.55018 17.1336H17.4494C17.6803 17.133 17.9072 17.0783 18.1085 16.9746C18.3099 16.871 18.4789 16.7219 18.5998 16.5415C18.7204 16.3611 18.789 16.1555 18.7986 15.9441C18.8083 15.7325 18.7588 15.5223 18.6549 15.3333L11.2053 1.67567Z" fill="#F2BD2D" stroke="#F2BD2D" stroke-width="1.6" stroke-linecap="round" stroke-linejoin="round"/>
<path d="M9.99994 6.58063V10.6158" stroke="#171717" stroke-width="1.6" stroke-linecap="round" stroke-linejoin="round"/>
<path d="M9.99957 14.029C9.81256 14.029 9.66095 13.8901 9.66095 13.7186C9.66095 13.5471 9.81256 13.4082 9.99957 13.4082" stroke="#171717" stroke-width="1.6" stroke-linecap="round" stroke-linejoin="round"/>
<path d="M9.99908 14.0288C10.1861 14.0288 10.3377 13.8899 10.3377 13.7184C10.3377 13.547 10.1861 13.408 9.99908 13.408" stroke="#171717" stroke-width="1.6" stroke-linecap="round" stroke-linejoin="round"/>
</svg>
