<svg width="32" height="32" viewBox="0 0 32 32" fill="none" xmlns="http://www.w3.org/2000/svg">
<path d="M19.2788 15.7438C19.2788 15.5433 19.3971 15.3618 19.5805 15.2808L24.0966 13.2857C24.4312 13.1378 24.8073 13.3829 24.8073 13.7487V24.8278C24.8073 25.1074 24.5807 25.334 24.3011 25.334H19.2788V15.7438Z" stroke="#D1D1D1" stroke-width="1.66667" stroke-linecap="round" stroke-linejoin="round"/>
<path d="M12.3656 12.9908C12.345 12.8939 12.4703 12.8365 12.5303 12.9153L15.5705 16.9131C15.7173 17.1062 15.9805 17.168 16.198 17.0604L21.0296 14.669L19.5675 15.365C19.3911 15.4489 19.2788 15.6268 19.2788 15.822V25.3321H12.3681V13.0142C12.3681 13.0063 12.3673 12.9985 12.3656 12.9908V12.9908Z" stroke="#D1D1D1" stroke-width="1.66667" stroke-linecap="round" stroke-linejoin="round"/>
<path d="M6.83951 15.1332C6.83951 14.9327 6.9578 14.7512 7.14116 14.6702L11.7831 12.6195C12.0585 12.4979 12.3681 12.6995 12.3681 13.0007V25.334H7.34571C7.06614 25.334 6.83951 25.1074 6.83951 24.8278V15.1332Z" stroke="#D1D1D1" stroke-width="1.66667" stroke-linecap="round" stroke-linejoin="round"/>
<path d="M26.1778 6.43555L17.7862 11.7999C17.5734 11.9359 17.293 11.8943 17.1288 11.7024L13.6464 7.63028C13.4939 7.45202 13.239 7.40184 13.0304 7.50903L6.17776 11.0298" stroke="#D1D1D1" stroke-width="1.66667" stroke-linecap="round" stroke-linejoin="round"/>
<path d="M21.8212 5.69458L25.6783 6.33742C25.9541 6.38338 26.1403 6.6442 26.0944 6.91996L25.4515 10.7771" stroke="#D1D1D1" stroke-width="1.66667" stroke-linecap="round" stroke-linejoin="round"/>
</svg>
