<svg width="32" height="32" viewBox="0 0 32 32" fill="none" xmlns="http://www.w3.org/2000/svg">
<path d="M18.5573 13.6636C19.1014 14.0264 19.7442 14.2524 20.441 14.2906C22.5486 14.4063 24.3525 12.7616 24.4702 10.6171C24.588 8.47252 22.9749 6.64023 20.8674 6.52453C20.0178 6.47789 19.2176 6.71728 18.5573 7.16015" stroke="#D1D1D1" stroke-width="2" stroke-linecap="round"/>
<path d="M19.6 17.7298C20.0014 17.6446 20.4164 17.6 20.8411 17.6C24.2381 17.6 27.0121 20.8121 27.1909 24.4297C27.2009 24.634 27.0342 24.8 26.8296 24.8H22" stroke="#D1D1D1" stroke-width="2" stroke-linecap="round"/>
<circle cx="11.088" cy="10.288" r="3.888" stroke="#D1D1D1" stroke-width="2"/>
<path d="M18.3906 24.4297C18.401 24.634 18.2342 24.8 18.0296 24.8H11.2H4.37037C4.16582 24.8 3.99901 24.634 4.00936 24.4297C4.20207 20.6254 7.34773 17.6 11.2 17.6C15.0523 17.6 18.1979 20.6254 18.3906 24.4297Z" stroke="#D1D1D1" stroke-width="2"/>
</svg>
