<svg width="33" height="33" viewBox="0 0 33 33" fill="none" xmlns="http://www.w3.org/2000/svg">
<path fill-rule="evenodd" clip-rule="evenodd" d="M11.5042 7C11.883 7 12.2464 7.15051 12.5143 7.41842C12.7822 7.68633 12.9327 8.04969 12.9327 8.42857V9.85714H20.0756V8.42857C20.0756 8.04969 20.2261 7.68633 20.494 7.41842C20.7619 7.15051 21.1253 7 21.5042 7C21.883 7 22.2464 7.15051 22.5143 7.41842C22.7822 7.68633 22.9327 8.04969 22.9327 8.42857V9.85714H24.3613C24.6427 9.85714 24.9213 9.91257 25.1813 10.0203C25.4413 10.1279 25.6775 10.2858 25.8765 10.4848C26.0755 10.6838 26.2333 10.92 26.341 11.18C26.4487 11.4399 26.5042 11.7186 26.5042 12V24.8571C26.5042 25.1385 26.4487 25.4172 26.341 25.6772C26.2333 25.9372 26.0755 26.1734 25.8765 26.3724C25.6775 26.5714 25.4413 26.7292 25.1813 26.8369C24.9213 26.9446 24.6427 27 24.3613 27H8.64701C8.3656 27 8.08695 26.9446 7.82697 26.8369C7.56699 26.7292 7.33076 26.5714 7.13178 26.3724C6.9328 26.1734 6.77495 25.9372 6.66727 25.6772C6.55958 25.4172 6.50415 25.1385 6.50415 24.8571V12C6.50415 11.7186 6.55958 11.4399 6.66727 11.18C6.77495 10.92 6.9328 10.6838 7.13178 10.4848C7.53364 10.0829 8.07869 9.85714 8.64701 9.85714H10.0756V8.42857C10.0756 8.04969 10.2261 7.68633 10.494 7.41842C10.7619 7.15051 11.1253 7 11.5042 7ZM18.737 14.2471C18.7038 14.2139 18.6644 14.1875 18.621 14.1695C18.5776 14.1515 18.5311 14.1422 18.4842 14.1422C18.4372 14.1422 18.3907 14.1515 18.3473 14.1695C18.3039 14.1875 18.2645 14.2139 18.2313 14.2471L12.3413 20.15C12.2869 20.205 12.2518 20.2762 12.2413 20.3529L11.8642 23.0214C11.8563 23.0762 11.8613 23.1321 11.8788 23.1846C11.8962 23.2371 11.9256 23.2849 11.9647 23.3241C12.0038 23.3633 12.0514 23.3929 12.1039 23.4105C12.1563 23.4282 12.2122 23.4334 12.267 23.4257L14.9356 23.0614C15.0128 23.0512 15.0845 23.0161 15.1399 22.9614L21.0427 17.0586C21.076 17.0254 21.1024 16.986 21.1204 16.9426C21.1384 16.8992 21.1476 16.8527 21.1476 16.8057C21.1476 16.7587 21.1384 16.7122 21.1204 16.6688C21.1024 16.6254 21.076 16.586 21.0427 16.5529L18.737 14.2471Z" fill="#3D3D3D"/>
</svg>
