<svg width="32" height="32" viewBox="0 0 32 32" fill="none" xmlns="http://www.w3.org/2000/svg">
<path d="M7.53846 8.30762C7.13043 8.30762 6.73912 8.46971 6.4506 8.75822C6.16209 9.04674 6 9.43805 6 9.84608V24.4615C6 24.8695 6.16209 25.2608 6.4506 25.5493C6.73912 25.8378 7.13043 25.9999 7.53846 25.9999H24.4615C24.8695 25.9999 25.2609 25.8378 25.5494 25.5493C25.8378 25.2608 26 24.8695 26 24.4615V9.84608C26 9.43805 25.8378 9.04674 25.5494 8.75822C25.2609 8.46971 24.8695 8.30762 24.4615 8.30762H21.3846" stroke="#D1D1D1" stroke-width="2" stroke-linecap="round" stroke-linejoin="round"/>
<path d="M10.6154 6V10.6154" stroke="#D1D1D1" stroke-width="2" stroke-linecap="round" stroke-linejoin="round"/>
<path d="M21.3846 6V10.6154" stroke="#D1D1D1" stroke-width="2" stroke-linecap="round" stroke-linejoin="round"/>
<path d="M7.78474 8.26807H22.2822" stroke="#D1D1D1" stroke-width="2" stroke-linecap="round" stroke-linejoin="round"/>
<path d="M19.9083 15.0836C20.2988 15.4742 20.2988 16.1073 19.9083 16.4979L14.4974 21.9087C14.3428 22.0633 14.1418 22.163 13.9252 22.1925L12.6941 22.3601C12.037 22.4496 11.4765 21.8864 11.5689 21.2298L11.7429 19.9945C11.7731 19.7799 11.8722 19.581 12.0253 19.4276L17.4251 14.0162C17.8155 13.625 18.4493 13.6247 18.8401 14.0155L19.9083 15.0836Z" stroke="#D1D1D1" stroke-width="2" stroke-linecap="round" stroke-linejoin="round"/>
</svg>
