<svg width="32" height="32" viewBox="0 0 32 32" fill="none" xmlns="http://www.w3.org/2000/svg">
<path d="M24.4702 10.617C24.3525 12.7615 22.5486 14.4062 20.441 14.2905C19.7746 14.2539 19.1577 14.0457 18.6293 13.7103C18.5876 13.6838 18.5724 13.6314 18.5924 13.5862C19.1024 12.434 19.7611 9.69126 18.5956 7.23916C18.5741 7.19391 18.5883 7.1391 18.6306 7.11215C19.2764 6.70001 20.049 6.47951 20.8674 6.52443C22.9749 6.64014 24.588 8.47243 24.4702 10.617Z" fill="#3D3D3D" stroke="#3D3D3D" stroke-width="2" stroke-linecap="round"/>
<path d="M20.8411 17.5999C24.3224 17.5999 27.1494 20.9734 27.1993 24.6997C27.2001 24.7549 27.1552 24.7999 27.1 24.7999H22.1C22.0448 24.7999 22 24.7542 21.9998 24.699C21.9879 22.0052 21.4926 20.5119 19.6851 17.8542C19.6451 17.7953 19.6767 17.7134 19.7467 17.7004C20.1023 17.6343 20.4679 17.5999 20.8411 17.5999Z" fill="#3D3D3D" stroke="#3D3D3D" stroke-width="2" stroke-linecap="round"/>
<path d="M14.976 10.2879C14.976 12.4352 13.2353 14.1759 11.088 14.1759C8.94073 14.1759 7.20001 12.4352 7.20001 10.2879C7.20001 8.14062 8.94073 6.3999 11.088 6.3999C13.2353 6.3999 14.976 8.14062 14.976 10.2879Z" fill="#3D3D3D" stroke="#3D3D3D" stroke-width="2"/>
<path d="M18.3906 24.4296C18.401 24.6339 18.2342 24.7999 18.0296 24.7999H11.2H4.37037C4.16582 24.7999 3.99901 24.6339 4.00936 24.4296C4.20207 20.6252 7.34773 17.5999 11.2 17.5999C15.0523 17.5999 18.1979 20.6252 18.3906 24.4296Z" fill="#3D3D3D" stroke="#3D3D3D" stroke-width="2"/>
</svg>
