<svg width="17" height="17" viewBox="0 0 17 17" fill="none" xmlns="http://www.w3.org/2000/svg">
<path d="M6.96153 7.34615C8.02361 7.34615 8.8846 6.48516 8.8846 5.42308C8.8846 4.36099 8.02361 3.5 6.96153 3.5C5.89944 3.5 5.03845 4.36099 5.03845 5.42308C5.03845 6.48516 5.89944 7.34615 6.96153 7.34615Z" stroke="#EC9E14" stroke-linecap="round" stroke-linejoin="round"/>
<path d="M8.11538 12.7309H3.5V12.3139C3.50612 11.7276 3.66075 11.1523 3.94944 10.642C4.23813 10.1316 4.65146 9.70279 5.15082 9.39549C5.65019 9.08819 6.2193 8.91246 6.80498 8.88474C7.39067 8.85701 7.97383 8.97819 8.5 9.23693" stroke="#EC9E14" stroke-linecap="round" stroke-linejoin="round"/>
<path d="M11.1923 8.88477V13.5001" stroke="#EC9E14" stroke-linecap="round" stroke-linejoin="round"/>
<path d="M8.88458 11.1924H13.5" stroke="#EC9E14" stroke-linecap="round" stroke-linejoin="round"/>
</svg>
