<svg width="33" height="33" viewBox="0 0 33 33" fill="none" xmlns="http://www.w3.org/2000/svg">
<path d="M13.8166 8.67344L14.5659 6.76082C14.6923 6.43699 14.9147 6.15845 15.2038 5.96168C15.493 5.76491 15.8356 5.65908 16.1866 5.65805H17.6156C17.9666 5.65908 18.3092 5.76491 18.5983 5.96168C18.8875 6.15845 19.1098 6.43699 19.2362 6.76082L19.9856 8.67344L22.5297 10.1208L24.5861 9.81067C24.9285 9.76471 25.277 9.82044 25.5874 9.97077C25.8976 10.1211 26.1557 10.3593 26.3287 10.655L27.0258 11.8611C27.2044 12.1615 27.2868 12.5085 27.2619 12.8561C27.237 13.2037 27.1061 13.5357 26.8863 13.8082L25.6142 15.4107V18.3054L26.9212 19.9079C27.1409 20.1804 27.2718 20.5124 27.2967 20.86C27.3217 21.2076 27.2392 21.5546 27.0606 21.855L26.3636 23.0611C26.1905 23.3568 25.9324 23.5949 25.6222 23.7454C25.3119 23.8956 24.9633 23.9514 24.6209 23.9054L22.5646 23.5953L20.0204 25.0427L19.2711 26.9553C19.1447 27.279 18.9224 27.5577 18.6332 27.7544C18.344 27.9512 18.0015 28.057 17.6504 28.0581H16.1866C15.8356 28.057 15.493 27.9512 15.2038 27.7544C14.9147 27.5577 14.6923 27.279 14.5659 26.9553L13.8166 25.0427L11.2723 23.5953L9.21603 23.9054C8.87363 23.9514 8.52514 23.8956 8.21484 23.7454C7.90456 23.5949 7.64648 23.3568 7.47338 23.0611L6.77633 21.855C6.5977 21.5546 6.51542 21.2076 6.5403 20.86C6.56519 20.5124 6.69609 20.1804 6.91574 19.9079L8.18787 18.3054V15.4107L6.88088 13.8082C6.66124 13.5357 6.53033 13.2037 6.50545 12.8561C6.48056 12.5085 6.56285 12.1615 6.74147 11.8611L7.43853 10.655C7.61163 10.3593 7.86971 10.1211 8.17999 9.97077C8.49028 9.82044 8.83878 9.76471 9.18117 9.81067L11.2375 10.1208L13.8166 8.67344ZM13.4158 16.8581C13.4158 17.5396 13.6202 18.2059 14.0032 18.7726C14.3861 19.3394 14.9305 19.781 15.5673 20.0419C16.2042 20.3027 16.9049 20.371 17.581 20.238C18.2571 20.105 18.8781 19.7768 19.3656 19.2948C19.853 18.8129 20.1849 18.1988 20.3194 17.5304C20.4539 16.8619 20.3849 16.169 20.1211 15.5393C19.8573 14.9096 19.4106 14.3713 18.8374 13.9927C18.2642 13.614 17.5904 13.4119 16.9011 13.4119C15.9767 13.4119 15.0902 13.775 14.4366 14.4213C13.783 15.0675 13.4158 15.9441 13.4158 16.8581Z" stroke="#3D3D3D" stroke-width="2" stroke-linecap="round" stroke-linejoin="round"/>
</svg>
