<svg width="15" height="15" viewBox="0 0 15 15" fill="none" xmlns="http://www.w3.org/2000/svg">
<g clip-path="url(#clip0_8_1456)">
<path fill-rule="evenodd" clip-rule="evenodd" d="M13.5461 0.236756C13.3568 0.199894 13.1615 0.206931 12.9753 0.257327H12.9691L5.118 2.43687C4.85188 2.50924 4.61679 2.66679 4.44869 2.88542C4.28059 3.10404 4.18872 3.37172 4.18715 3.6475V9.29847C3.68363 9.08235 3.12386 9.03431 2.59088 9.16149C2.05791 9.28867 1.58013 9.58429 1.22846 10.0045C0.87678 10.4247 0.669939 10.947 0.638626 11.4941C0.607313 12.0411 0.753196 12.5837 1.05463 13.0413C1.35606 13.4988 1.79698 13.847 2.31196 14.0342C2.82695 14.2214 3.38855 14.2375 3.91343 14.0803C4.43832 13.923 4.89853 13.6007 5.22576 13.1612C5.553 12.7217 5.72982 12.1885 5.73 11.6405V11.6302V11.6251V6.24978L13.0226 4.2235V6.7579C12.5217 6.54317 11.9653 6.49468 11.4348 6.61955C10.9044 6.74441 10.428 7.03605 10.0755 7.45164C9.72309 7.86723 9.51317 8.38487 9.47661 8.92857C9.44004 9.47226 9.57876 10.0134 9.87239 10.4724C10.166 10.9314 10.5991 11.2842 11.108 11.479C11.6169 11.6738 12.1749 11.7002 12.7 11.5545C13.2251 11.4088 13.6896 11.0985 14.0253 10.6693C14.3611 10.2402 14.5504 9.71461 14.5654 9.1699V9.10304V9.09893V9.09378V3.20933V1.47413V1.47207V1.44327C14.5581 1.15647 14.4533 0.880732 14.2681 0.661568C14.083 0.442404 13.8287 0.292917 13.5471 0.237784L13.5461 0.236756Z" fill="#3D3D3D"/>
</g>
<defs>
<clipPath id="clip0_8_1456">
<rect width="14.4" height="14.4" fill="white" transform="translate(0.400024)"/>
</clipPath>
</defs>
</svg>
