<svg width="137" height="25" viewBox="0 0 137 25" fill="none" xmlns="http://www.w3.org/2000/svg">
<g clip-path="url(#clip0_162_852)">
<path d="M22.6469 20.7149C22.5278 20.6156 22.4709 20.438 22.4709 20.2812C22.4139 18.5567 22.2535 16.8165 22.0982 15.092C21.8031 12.2022 21.4304 9.29144 21.0008 6.4225C20.9438 6.08806 20.8455 5.74838 20.8455 5.41393C20.8455 5.25716 20.8869 5.07949 21.0008 4.9802C21.1405 4.8391 21.3528 4.82342 21.5288 4.78162C22.9005 4.60394 24.293 4.64052 25.6647 4.60394C25.8614 4.60394 26.0737 4.62485 26.2341 4.72413C26.3894 4.82342 26.4878 4.95929 26.5292 5.15787C26.8605 7.31611 27.0986 9.49525 27.316 11.6692C28.6516 11.549 29.9819 11.4706 31.3381 11.4915C31.4779 9.63112 31.6125 7.77075 31.6901 5.91038C31.6901 5.75361 31.6694 5.57593 31.7471 5.45574C31.8247 5.31464 32.1767 5.27806 32.3165 5.25716C32.6685 5.21536 33.0049 5.19968 33.3569 5.19968C34.5527 5.19968 35.7278 5.31987 36.9287 5.41916C37.3221 5.46097 37.6948 5.71703 37.6327 6.12986C37.4774 7.15934 36.9856 13.101 36.908 14.1305C36.7889 15.8707 36.7527 17.6161 36.6129 19.3562C36.5922 19.6541 36.5353 20.0513 36.2609 20.1662C36.0435 20.2864 35.1014 20.3073 34.8478 20.3073C33.9471 20.3282 33.0257 20.2864 32.1405 20.1506C31.7264 20.0931 31.0638 20.0513 31.0224 19.6384C30.9033 18.3895 31.1414 17.1039 31.0793 15.855C30.6497 15.8341 28.196 15.9125 27.7819 15.9334C27.8388 16.388 28.0977 19.1629 28.1546 19.6332C28.196 19.8684 28.2116 20.1871 28.0356 20.3648C27.8803 20.5634 27.1918 20.5216 26.9381 20.5216C25.6647 20.5634 24.3862 20.7202 23.092 20.762C22.9367 20.762 22.7607 20.8038 22.6417 20.7202L22.6469 20.7149Z" fill="#59996B"/>
<path d="M41.4373 19.5705C41.106 19.5705 40.7696 19.6123 40.4383 19.5496C40.283 19.5287 40.107 19.4921 40.0086 19.3719C39.931 19.2935 39.8896 19.1733 39.8896 19.074C39.7705 17.5272 39.2425 8.8577 39.0044 7.33178C38.963 7.05482 38.8853 6.57927 39.139 6.45908C39.7291 6.14031 40.4331 6.12463 41.0801 6.02534C43.6114 5.72748 46.1427 5.60728 48.6688 5.508C48.7879 5.508 48.9018 5.508 49.0001 5.56548C49.2745 5.72225 49.2175 6.39637 49.2175 6.71514C49.1968 7.46765 49.1399 8.19926 49.0985 8.95177C49.0778 9.24963 48.9432 9.58408 48.6274 9.58408C47.1366 9.58408 45.6665 9.66247 44.1757 9.72518C44.1757 10.0805 44.1964 10.4568 44.2171 10.833C44.5328 10.8121 46.3135 10.7912 46.6086 10.7756C47.002 10.7547 47.5507 10.6763 47.5507 11.0734C47.5714 11.3504 47.53 13.054 47.5093 13.3309C47.5093 13.749 47.5093 14.282 47.0952 14.282C46.1168 14.282 45.1333 14.2402 44.1705 14.3238C44.1135 14.559 44.1912 15.6721 44.2119 15.9281C45.6251 15.808 47.0382 15.8498 48.4462 15.8289C48.8396 15.8289 48.8396 16.3253 48.8189 16.7172C48.7982 16.9942 48.7206 18.5776 48.6999 18.8546C48.6792 19.1315 48.4669 19.3876 48.1874 19.4869C47.1262 19.8422 42.5606 19.628 41.4218 19.5653L41.4373 19.5705Z" fill="#59996B"/>
<path d="M57.0082 20.1244C55.7918 19.9467 54.5753 19.5914 53.4986 18.9956C52.8101 18.5985 52.1631 18.102 51.6765 17.4906C51.1847 16.8374 50.8327 16.064 50.6153 15.2906C50.108 13.4093 50.2633 11.3295 51.0294 9.52658C51.7541 7.80208 53.1673 6.21868 54.8548 5.46617C56.444 4.75547 58.3852 4.71367 60.0313 5.21011C60.8336 5.46617 61.5997 5.94172 62.1692 6.57403C62.6195 7.04958 62.9715 7.62441 63.132 8.23582C63.3494 9.06672 63.2873 9.96032 63.251 10.8121C63.2303 11.4235 63.2303 12.2387 62.6247 12.1604C62.0967 12.0611 61.548 11.9409 60.9993 11.9618C60.4299 11.9827 59.8605 12.082 59.3118 12.1604C59.0943 12.1813 58.8614 12.2387 58.644 12.1604C58.5249 12.1186 58.4266 12.0036 58.3696 11.8834C58.292 11.6273 58.292 11.3504 58.2713 11.0734C58.2143 10.6972 58.0953 10.3 57.8986 9.98645C57.764 9.78787 57.5828 9.61019 57.3499 9.53181C57.1946 9.47433 56.9772 9.47433 56.8012 9.55271C56.5061 9.652 56.2732 9.87148 56.0765 10.0857C55.1344 11.1727 54.8238 13.3153 55.6624 14.4806C55.8384 14.7576 56.1127 14.9561 56.4078 15.1129C56.9772 15.3899 57.6449 15.5101 58.2713 15.4317C59.4101 15.3115 60.5075 14.8569 61.5066 14.3029C61.7809 14.1618 62.3089 13.7281 62.5677 13.9058C62.7023 14.0051 62.8007 14.1618 62.8421 14.3395C63.0595 15.1129 63.3132 15.8863 63.5461 16.6754C63.6652 17.0726 63.8774 17.8042 63.5254 18.0393C63.3494 18.3163 62.428 18.9486 62.1536 19.1106C60.6214 19.9624 58.7423 20.3752 57.0134 20.1192L57.0082 20.1244Z" fill="#59996B"/>
<path d="M70.4255 20.2028C69.8561 20.161 66.9935 20.0826 66.4448 20.1453C66.1912 20.1871 65.8392 20.1871 65.7564 19.9467C65.6787 19.6907 65.6166 18.3842 65.6011 18.0864C65.5234 16.5395 65.2284 6.88234 65.1507 5.33552C65.13 5.10036 65.2698 4.80249 65.482 4.72411C65.9531 4.52553 67.9512 4.44714 68.4429 4.44714C68.7173 4.44714 70.0528 4.44714 70.3272 4.48895C70.6429 4.56734 70.8396 4.8234 70.8189 5.16307C70.7982 5.89468 70.938 10.0753 70.9587 10.8069C72.7446 9.26006 73.9973 7.18544 75.2344 5.14217C75.3121 5.02198 75.5502 4.78682 75.6848 4.76591C75.8401 4.74501 76.0161 4.78682 76.1558 4.8234C76.6838 4.96449 77.1549 5.24146 77.6053 5.51842C78.1333 5.83719 78.625 6.17164 79.0961 6.5479C79.2514 6.66809 79.4118 6.88234 79.3704 7.08092C79.3704 7.10183 79.3135 7.22202 79.3135 7.2377C79.2721 7.57214 79.1375 7.89091 78.9822 8.18878C78.7855 8.58594 78.5318 8.96219 78.2575 9.31754C77.1187 10.8435 75.7469 12.1865 74.4114 13.5556C74.8048 13.9528 75.2758 14.2507 75.7262 14.5433C76.6683 15.139 77.626 15.6512 78.6095 16.1685C78.8269 16.2678 79.0805 16.3462 79.2151 16.5448C79.4532 16.8217 79.0961 17.2973 78.8838 17.5951C78.3351 18.2902 77.6881 18.9591 76.9841 19.4973C76.7304 19.675 76.4354 19.8945 76.1196 19.8736C75.9436 19.8736 75.7469 19.8318 75.5916 19.7743C73.9248 18.98 72.3356 18.0341 70.9225 16.8635C70.9017 17.2189 70.9017 19.1576 70.9225 19.4973V19.9154C70.881 20.1139 70.6481 20.2341 70.4307 20.2132L70.4255 20.2028Z" fill="#59996B"/>
<path d="M83.6617 18.7553C82.7765 18.2379 82.0156 17.407 81.5652 16.4768C80.8405 15.0136 80.6438 13.2891 80.5662 11.6482C80.4678 9.64677 80.5455 7.55125 81.1925 5.64907C81.2495 5.50798 81.3271 5.3303 81.4669 5.27282C81.6015 5.19443 81.7826 5.23101 81.9379 5.25192C83.0146 5.42959 84.1172 5.48707 85.2146 5.54978C85.3544 5.54978 85.5304 5.57069 85.665 5.64907C85.8203 5.76926 85.8824 6.00442 85.8617 6.203C85.6857 7.66621 85.6288 9.15555 85.7271 10.6188C85.8048 11.4706 85.9238 12.3589 86.2965 13.1323C86.4725 13.4668 86.7262 13.8065 87.0626 14.005C87.28 14.1252 87.5544 14.2036 87.808 14.1618C88.0462 14.12 88.2791 13.9423 88.4344 13.7647C88.7657 13.31 88.8433 12.6934 88.9055 12.1238C89.1229 9.96554 88.6104 7.74982 87.9064 5.66998C87.7873 5.31462 87.7304 4.87566 88.0824 4.76069C89.3196 4.36354 90.593 4.00819 91.8871 3.7887C92.1614 3.7469 92.5134 3.88799 92.6118 4.14406C93.2174 5.60727 93.5746 7.19067 93.7506 8.7793C93.968 10.7964 93.8283 12.9181 93.2226 14.8568C92.8085 16.1633 92.0631 17.4488 91.0071 18.3215C90.1426 19.0322 89.0245 19.4712 87.9271 19.6071C86.4932 19.7847 84.9092 19.5078 83.6721 18.7553H83.6617Z" fill="#59996B"/>
<path d="M95.9972 20.6365C95.7229 20.2812 95.7643 19.7638 95.7436 19.3092C95.5883 16.5761 95.5055 13.843 95.4278 11.0943C95.4071 10.462 95.2725 7.53033 95.4071 6.89802C95.464 6.62105 95.7384 6.40157 96.0127 6.2866C97.0118 5.85286 98.1092 5.67519 99.2118 5.51319C100.703 5.31461 102.292 5.23623 103.741 5.63338C104.683 5.88945 105.605 6.36499 106.293 7.06001C106.961 7.75504 107.432 8.66432 107.587 9.61541C107.743 10.509 107.608 11.4758 107.215 12.2701C106.723 13.2787 105.744 14.0939 104.704 14.4858C105.548 15.8706 106.821 16.9628 107.841 18.2065C107.882 18.2484 107.919 18.264 107.939 18.3058C107.981 18.4835 107.701 18.818 107.567 18.98C106.842 19.8109 105.843 20.4066 104.761 20.6052C104.466 20.6626 104.155 20.6836 103.876 20.5843C103.658 20.5059 103.503 20.3491 103.363 20.1662C102.949 19.6332 101.168 16.7433 100.853 16.1267C100.894 17.2764 100.951 18.4208 101.07 19.5496C101.091 19.7847 101.189 20.0251 101.091 20.2446C100.796 20.9971 99.2687 21.0964 98.4612 21.0964C97.8556 21.0964 96.3647 21.1382 95.992 20.6417L95.9972 20.6365ZM101.722 12.0245C102.136 11.9461 102.566 11.7266 102.784 11.3713C103.079 10.8382 103.058 10.0857 102.804 9.53179C102.452 8.75838 101.08 8.92038 100.237 9.07715C100.195 10.0648 100.195 11.0786 100.237 12.0663C100.728 12.0663 101.236 12.1238 101.728 12.0245H101.722Z" fill="#59996B"/>
<path d="M111.532 19.5705C111.2 19.5705 110.864 19.6123 110.533 19.5496C110.377 19.5287 110.201 19.4921 110.103 19.3719C110.025 19.2935 109.984 19.1733 109.984 19.074C109.865 17.5272 109.337 8.8577 109.099 7.33178C109.057 7.05482 108.98 6.57927 109.233 6.45908C109.823 6.14031 110.527 6.12463 111.175 6.02534C113.706 5.72748 116.237 5.60728 118.763 5.508C118.882 5.508 118.996 5.508 119.094 5.56548C119.369 5.72225 119.312 6.39637 119.312 6.71514C119.291 7.46765 119.234 8.19926 119.193 8.95177C119.172 9.24963 119.038 9.58408 118.722 9.58408C117.231 9.58408 115.761 9.66247 114.27 9.72518C114.27 10.0805 114.291 10.4568 114.311 10.833C114.627 10.8121 116.408 10.7912 116.703 10.7756C117.096 10.7547 117.645 10.6763 117.645 11.0734C117.666 11.3504 117.624 13.054 117.604 13.3309C117.604 13.749 117.604 14.282 117.19 14.282C116.211 14.282 115.228 14.2402 114.265 14.3238C114.208 14.559 114.286 15.6721 114.306 15.9281C115.719 15.808 117.133 15.8498 118.541 15.8289C118.934 15.8289 118.934 16.3253 118.913 16.7172C118.893 16.9942 118.815 18.5776 118.794 18.8546C118.774 19.1315 118.561 19.3876 118.282 19.4869C117.221 19.8422 112.655 19.628 111.516 19.5653L111.532 19.5705Z" fill="#59996B"/>
<path d="M123.024 19.5705C122.692 19.5705 122.356 19.6123 122.024 19.5496C121.869 19.5287 121.693 19.4921 121.595 19.3719C121.517 19.2935 121.476 19.1733 121.476 19.074C121.357 17.5272 120.829 8.8577 120.591 7.33178C120.549 7.05482 120.472 6.57927 120.725 6.45908C121.315 6.14031 122.019 6.12463 122.666 6.02534C125.198 5.72748 127.729 5.60728 130.255 5.508C130.374 5.508 130.488 5.508 130.586 5.56548C130.861 5.72225 130.804 6.39637 130.804 6.71514C130.783 7.46765 130.726 8.19926 130.685 8.95177C130.664 9.24963 130.529 9.58408 130.214 9.58408C128.723 9.58408 127.253 9.66247 125.762 9.72518C125.762 10.0805 125.783 10.4568 125.803 10.833C126.119 10.8121 127.9 10.7912 128.195 10.7756C128.588 10.7547 129.137 10.6763 129.137 11.0734C129.158 11.3504 129.116 13.054 129.095 13.3309C129.095 13.749 129.095 14.282 128.681 14.282C127.703 14.282 126.719 14.2402 125.757 14.3238C125.7 14.559 125.777 15.6721 125.798 15.9281C127.211 15.808 128.624 15.8498 130.032 15.8289C130.426 15.8289 130.426 16.3253 130.405 16.7172C130.384 16.9942 130.307 18.5776 130.286 18.8546C130.265 19.1315 130.053 19.3876 129.774 19.4869C128.712 19.8422 124.147 19.628 123.008 19.5653L123.024 19.5705Z" fill="#59996B"/>
<path d="M20.5763 14.8673C20.6954 14.9561 20.7058 15.1442 20.6954 15.3324C20.6747 15.949 20.5763 16.5291 20.3434 16.9576C20.038 17.5272 18.9613 18.635 17.6879 19.2569C16.0728 20.0408 14.1575 20.2655 13.1895 20.1244C11.9731 19.9467 10.7618 19.5914 9.67991 18.9956C8.99662 18.5985 8.34438 18.1072 7.8578 17.4906C7.36603 16.8374 7.01403 16.064 6.79662 15.2958C6.37215 13.7281 6.41356 12.0192 6.87945 10.4463C7.00368 10.0387 6.93639 9.57359 6.64651 9.26004C6.26862 8.86811 6.08227 8.29328 6.23239 7.67664C6.38251 7.05477 6.90533 6.55833 7.53168 6.44859C7.81121 6.40156 8.08038 6.41723 8.32885 6.49562C8.83097 6.65239 12.3147 4.77635 12.4131 4.32693C12.4234 4.2799 12.439 4.23287 12.4493 4.18584C12.6408 3.55875 13.1637 3.05185 13.8004 2.93688C14.8978 2.74353 15.8554 3.59533 15.8554 4.66661C15.8554 4.81815 17.7811 5.94692 18.3505 6.57923C18.3971 6.62626 18.4281 6.77258 18.3142 6.87187C18.2003 6.97116 14.1679 10.4776 12.0093 12.3485C11.5745 12.7299 11.0879 13.2473 11.1655 13.8901C11.2173 14.3133 11.5175 14.6373 11.854 14.7837C12.1853 14.9248 12.5425 14.9195 12.8945 14.9091C14.7994 14.8673 17.7086 14.8202 19.9862 14.7784C20.2295 14.7784 20.4521 14.7784 20.5712 14.8673H20.5763Z" fill="#59996B"/>
<path d="M8.24609 8.9047C8.62632 8.9047 8.93455 8.59353 8.93455 8.20967C8.93455 7.82582 8.62632 7.51465 8.24609 7.51465C7.86585 7.51465 7.55762 7.82582 7.55762 8.20967C7.55762 8.59353 7.86585 8.9047 8.24609 8.9047Z" fill="#1E1E1E"/>
<path d="M14.1316 5.66996C14.5118 5.66996 14.8201 5.35878 14.8201 4.97493C14.8201 4.59108 14.5118 4.27991 14.1316 4.27991C13.7514 4.27991 13.4431 4.59108 13.4431 4.97493C13.4431 5.35878 13.7514 5.66996 14.1316 5.66996Z" fill="#1E1E1E"/>
</g>
<defs>
<clipPath id="clip0_162_852">
<rect width="137" height="25" fill="white"/>
</clipPath>
</defs>
</svg>
