<svg width="26" height="21" viewBox="0 0 26 21" fill="none" xmlns="http://www.w3.org/2000/svg">
<path d="M15.5573 8.66359C16.1014 9.02642 16.7442 9.25235 17.441 9.29061C19.5486 9.40631 21.3525 7.76161 21.4702 5.61707C21.588 3.47252 19.9749 1.64023 17.8674 1.52453C17.0178 1.47789 16.2176 1.71728 15.5573 2.16015" stroke="#D1D1D1" stroke-width="2" stroke-linecap="round"/>
<path d="M16.6 12.7298C17.0014 12.6446 17.4164 12.6 17.8411 12.6C21.2381 12.6 24.0121 15.8121 24.1909 19.4297C24.2009 19.634 24.0342 19.8 23.8296 19.8H19" stroke="#D1D1D1" stroke-width="2" stroke-linecap="round"/>
<circle cx="8.08801" cy="5.28799" r="3.888" stroke="#D1D1D1" stroke-width="2"/>
<path d="M15.3906 19.4297C15.401 19.634 15.2342 19.8 15.0296 19.8H8.2H1.37037C1.16582 19.8 0.999007 19.634 1.00936 19.4297C1.20207 15.6254 4.34773 12.6 8.2 12.6C12.0523 12.6 15.1979 15.6254 15.3906 19.4297Z" stroke="#D1D1D1" stroke-width="2"/>
</svg>
