<svg width="32" height="32" viewBox="0 0 32 32" fill="none" xmlns="http://www.w3.org/2000/svg">
<path fill-rule="evenodd" clip-rule="evenodd" d="M11.1667 12.8922L7.14113 14.6706C6.95777 14.7516 6.83948 14.9332 6.83948 15.1336V24.8283C6.83948 25.1078 7.06611 25.3345 7.34567 25.3345H11.1667V12.8922ZM12.8334 25.3325V13.3143L15.5706 16.9136C15.7174 17.1067 15.9806 17.1684 16.198 17.0608L18.1667 16.0865V25.3325H12.8334ZM19.8334 25.3342H24.3011C24.5807 25.3342 24.8073 25.1076 24.8073 24.828V13.7489C24.8073 13.3831 24.4312 13.138 24.0966 13.2859L19.8334 15.1692V25.3342Z" fill="black"/>
<path d="M26.1777 6.43555L17.7861 11.7999C17.5734 11.9359 17.2929 11.8943 17.1288 11.7024L13.6464 7.63028C13.4939 7.45202 13.239 7.40184 13.0303 7.50903L6.17773 11.0298" stroke="black" stroke-width="1.66667" stroke-linecap="round" stroke-linejoin="round"/>
<path d="M21.8212 5.69434L25.6783 6.33718C25.954 6.38314 26.1403 6.64395 26.0943 6.91972L25.4514 10.7768" stroke="black" stroke-width="1.66667" stroke-linecap="round" stroke-linejoin="round"/>
</svg>
