<svg width="12" height="13" viewBox="0 0 12 13" fill="none" xmlns="http://www.w3.org/2000/svg">
<g clip-path="url(#clip0_159_1919)">
<path fill-rule="evenodd" clip-rule="evenodd" d="M10.5031 0.729589C10.6417 0.691695 10.7873 0.686583 10.9283 0.714704C11.0693 0.742822 11.2014 0.803299 11.3147 0.890905C11.428 0.978483 11.5192 1.09074 11.582 1.2186C11.6448 1.34643 11.6777 1.48677 11.6785 1.62887V1.63183V3.59475C11.6787 3.60261 11.6787 3.61045 11.6785 3.61827V7.82659C11.6813 7.86997 11.6827 7.91373 11.6827 7.95781C11.6827 9.06845 10.7824 9.96879 9.67177 9.96879C8.56111 9.96879 7.66076 9.06845 7.66076 7.95781C7.66076 6.84717 8.56111 5.94682 9.67177 5.94682C10.0094 5.94682 10.3277 6.03006 10.6071 6.17713V4.31102L4.55764 5.99142V9.77585C4.56179 9.82865 4.56391 9.88196 4.56391 9.93579C4.56391 11.0464 3.66356 11.9467 2.55292 11.9467C1.44228 11.9467 0.541931 11.0464 0.541931 9.93579C0.541931 8.82513 1.44228 7.92478 2.55292 7.92478C2.88978 7.92478 3.2073 8.00761 3.48621 8.15401V5.59595C3.48603 5.58792 3.48603 5.57991 3.48621 5.57193V3.41174C3.48734 3.2085 3.55412 3.01037 3.67757 2.84781C3.80062 2.68578 3.97359 2.56766 4.171 2.51312L10.4991 0.730699L10.5031 0.729589ZM4.55764 4.87942L10.6071 3.19902V1.8134L4.55764 3.51734V4.87942Z" fill="#D1D1D1"/>
</g>
<defs>
<clipPath id="clip0_159_1919">
<rect width="12" height="12" fill="white" transform="translate(0 0.375046)"/>
</clipPath>
</defs>
</svg>
