<svg width="21" height="20" viewBox="0 0 21 20" fill="none" xmlns="http://www.w3.org/2000/svg">
<path fill-rule="evenodd" clip-rule="evenodd" d="M5.50415 0C5.88303 0 6.24639 0.15051 6.5143 0.418419C6.78221 0.686328 6.93272 1.04969 6.93272 1.42857V2.85714H14.0756V1.42857C14.0756 1.04969 14.2261 0.686328 14.494 0.418419C14.7619 0.15051 15.1253 0 15.5042 0C15.883 0 16.2464 0.15051 16.5143 0.418419C16.7822 0.686328 16.9327 1.04969 16.9327 1.42857V2.85714H18.3613C18.6427 2.85714 18.9213 2.91257 19.1813 3.02026C19.4413 3.12795 19.6775 3.28579 19.8765 3.48477C20.0755 3.68375 20.2333 3.91998 20.341 4.17996C20.4487 4.43995 20.5042 4.7186 20.5042 5V17.8571C20.5042 18.1385 20.4487 18.4172 20.341 18.6772C20.2333 18.9372 20.0755 19.1734 19.8765 19.3724C19.6775 19.5714 19.4413 19.7292 19.1813 19.8369C18.9213 19.9446 18.6427 20 18.3613 20H2.64701C2.3656 20 2.08695 19.9446 1.82697 19.8369C1.56699 19.7292 1.33076 19.5714 1.13178 19.3724C0.932796 19.1734 0.774954 18.9372 0.667266 18.6772C0.559577 18.4172 0.50415 18.1385 0.50415 17.8571L0.50415 5C0.50415 4.7186 0.559577 4.43995 0.667266 4.17996C0.774954 3.91998 0.932796 3.68375 1.13178 3.48477C1.53364 3.08291 2.07869 2.85714 2.64701 2.85714H4.07558V1.42857C4.07558 1.04969 4.22609 0.686328 4.494 0.418419C4.76191 0.15051 5.12527 0 5.50415 0ZM12.737 7.24714C12.7038 7.21388 12.6644 7.1875 12.621 7.16949C12.5776 7.15149 12.5311 7.14222 12.4842 7.14222C12.4372 7.14222 12.3907 7.15149 12.3473 7.16949C12.3039 7.1875 12.2645 7.21388 12.2313 7.24714L6.34129 13.15C6.28686 13.205 6.25177 13.2762 6.24129 13.3529L5.86415 16.0214C5.85631 16.0762 5.86132 16.1321 5.87877 16.1846C5.89622 16.2371 5.92564 16.2849 5.96471 16.3241C6.00378 16.3633 6.05142 16.3929 6.10388 16.4105C6.15635 16.4282 6.21219 16.4334 6.26701 16.4257L8.93558 16.0614C9.01275 16.0512 9.08449 16.0161 9.13986 15.9614L15.0427 10.0586C15.076 10.0254 15.1024 9.98598 15.1204 9.94259C15.1384 9.89921 15.1476 9.85269 15.1476 9.80571C15.1476 9.75874 15.1384 9.71222 15.1204 9.66883C15.1024 9.62544 15.076 9.58603 15.0427 9.55286L12.737 7.24714Z" fill="black"/>
</svg>
