<?xml version="1.0" standalone="no"?>
<!DOCTYPE svg PUBLIC "-//W3C//DTD SVG 20010904//EN"
 "http://www.w3.org/TR/2001/REC-SVG-20010904/DTD/svg10.dtd">
<svg version="1.0" xmlns="http://www.w3.org/2000/svg"
 width="4384.000000pt" height="4384.000000pt" viewBox="0 0 4384.000000 4384.000000"
 preserveAspectRatio="xMidYMid meet">
<metadata>
Created by potrace 1.14, written by Peter Selinger 2001-2017
</metadata>
<g transform="translate(0.000000,4384.000000) scale(0.100000,-0.100000)"
fill="#000000" stroke="none">
<path d="M4400 24976 c-30 -7 -73 -20 -95 -30 -22 -9 -42 -16 -44 -16 -2 1 -7
-2 -10 -7 -3 -4 -25 -21 -49 -37 -86 -59 -200 -215 -215 -296 -13 -67 -43
-108 -122 -166 -22 -16 -42 -31 -45 -34 -14 -15 -190 -126 -305 -192 -127 -72
-406 -215 -495 -253 -173 -73 -299 -113 -319 -101 -5 4 -12 2 -15 -3 -3 -5
-24 -3 -47 5 -57 20 -163 23 -234 7 -81 -18 -74 -15 -140 -48 -60 -29 -205
-161 -205 -186 0 -7 -6 -20 -14 -28 -15 -18 -53 -120 -60 -166 -5 -31 -10
-146 -6 -155 1 -3 4 -18 6 -35 13 -87 57 -177 130 -266 53 -65 83 -120 93
-169 16 -81 -7 -264 -46 -370 -3 -8 -8 -24 -10 -35 -2 -11 -8 -42 -13 -70 -16
-79 -19 -96 -25 -140 -4 -22 -8 -51 -10 -65 -9 -58 -17 -161 -20 -250 -2 -52
-4 -99 -5 -105 -1 -5 -1 -12 0 -15 6 -16 5 -62 -2 -66 -5 -3 -5 -11 -1 -17 4
-6 8 -40 9 -75 5 -172 41 -396 93 -575 11 -37 21 -71 22 -75 26 -99 186 -451
219 -482 3 -3 20 -28 38 -56 18 -28 40 -61 50 -72 9 -12 28 -35 40 -51 45 -58
212 -212 288 -266 15 -11 40 -30 55 -42 15 -13 30 -23 34 -23 5 0 24 -12 44
-27 20 -16 45 -33 56 -39 11 -6 47 -26 80 -44 33 -18 64 -37 69 -41 6 -5 18
-9 28 -9 10 0 18 -3 18 -8 0 -7 17 -16 95 -48 22 -9 56 -23 75 -31 56 -24 71
-30 145 -57 59 -21 194 -62 230 -71 6 -1 17 -5 25 -8 8 -3 38 -11 65 -17 28
-6 59 -12 70 -15 242 -57 497 -79 680 -60 28 3 66 7 85 9 41 4 124 16 160 22
14 3 34 6 45 8 110 19 329 72 385 94 8 3 18 6 23 7 4 2 9 4 12 5 3 1 10 4 15
5 6 1 11 3 13 5 1 1 9 3 17 5 23 6 89 31 142 53 25 11 49 18 52 15 3 -4 6 -1
6 5 0 7 4 12 9 12 13 0 146 64 203 98 150 88 239 150 362 255 72 61 231 220
274 273 13 16 40 54 60 84 21 30 39 57 42 60 6 6 25 54 47 120 8 25 17 52 20
60 8 19 9 28 22 108 23 146 30 273 17 328 -4 17 -18 42 -32 55 l-26 24 -356
-1 c-325 -1 -511 -4 -1287 -20 -137 -3 -256 -5 -262 -5 -22 1 -33 1 -228 -3
-384 -9 -503 -7 -555 8 -56 16 -130 49 -130 57 0 5 -5 9 -10 9 -24 0 -93 78
-122 137 -53 108 -46 239 19 353 15 25 31 48 37 52 6 4 8 8 3 8 -15 0 125 146
207 215 26 22 66 57 89 78 23 21 55 48 70 60 16 12 41 33 56 47 14 14 60 54
101 89 41 35 87 76 102 90 14 14 39 36 55 48 15 12 40 32 54 45 14 13 52 46
84 73 33 28 66 57 75 65 9 8 63 56 120 105 118 101 174 151 205 180 12 11 37
32 56 47 19 14 48 39 65 55 17 15 57 51 89 78 32 28 63 55 69 60 6 6 45 39 86
75 41 35 82 71 91 80 8 8 38 34 65 57 55 47 88 74 124 106 34 31 181 157 265
230 77 66 82 72 89 109 7 38 -53 96 -249 242 -107 79 -395 282 -442 311 -27
16 -54 38 -88 70 -25 24 -33 39 -33 70 -3 86 -55 232 -107 295 -122 149 -254
219 -425 225 -47 2 -110 -2 -140 -9z"/>
<path d="M29378 24705 c-2 -2 -21 -6 -43 -10 -22 -4 -49 -9 -60 -10 -11 -2
-31 -6 -45 -9 -55 -12 -76 -17 -95 -20 -11 -3 -42 -10 -70 -16 -27 -6 -59 -14
-70 -16 -30 -6 -62 -13 -87 -20 -13 -3 -30 -7 -38 -9 -8 -1 -22 -5 -30 -8 -16
-6 -235 -66 -261 -72 -25 -5 -161 -45 -189 -55 -14 -5 -70 -23 -125 -40 -110
-34 -128 -44 -149 -85 -19 -36 -14 -144 9 -212 10 -26 18 -52 19 -58 1 -5 15
-48 30 -95 27 -80 62 -197 71 -230 2 -8 14 -49 25 -90 12 -41 23 -83 25 -93 3
-10 7 -27 10 -37 3 -10 8 -29 11 -42 3 -13 10 -41 15 -63 6 -22 13 -53 15 -70
3 -16 8 -37 11 -45 4 -8 8 -26 9 -40 2 -14 8 -45 13 -70 6 -25 13 -58 15 -75
3 -16 7 -41 10 -55 9 -51 27 -166 30 -205 3 -22 5 -40 6 -40 1 0 3 -16 4 -35
2 -19 7 -87 11 -150 15 -198 10 -470 -10 -630 -3 -19 -7 -57 -10 -85 -7 -55
-41 -209 -54 -240 -49 -116 -102 -191 -172 -240 -122 -87 -301 -55 -447 79
-30 28 -122 151 -122 163 0 6 -7 16 -15 23 -8 7 -12 16 -9 21 3 5 0 9 -5 9 -6
0 -11 5 -11 11 0 6 -6 25 -14 42 -13 29 -28 72 -26 72 0 0 -12 38 -28 85 -15
47 -27 92 -27 100 1 8 -2 20 -7 26 -4 6 -9 32 -10 57 -2 26 -6 47 -10 47 -4 0
-7 8 -7 18 0 9 -2 31 -5 47 -5 36 -17 127 -21 175 -2 19 -4 35 -5 35 -1 0 -3
25 -5 55 -23 329 -19 849 11 1140 3 30 7 71 8 90 2 19 7 69 12 110 13 119 9
172 -16 223 -12 25 -30 48 -39 51 -58 22 -87 27 -176 33 -55 3 -119 6 -142 6
-24 1 -43 5 -43 9 0 5 -8 4 -19 -1 -10 -6 -21 -8 -23 -5 -3 2 -38 7 -79 9
-123 8 -212 15 -259 20 -25 2 -70 7 -100 9 -57 6 -102 11 -180 21 -25 4 -60 8
-77 11 -18 2 -50 7 -70 11 -73 13 -157 8 -186 -12 -34 -22 -66 -83 -100 -192
-39 -122 -97 -360 -112 -453 -19 -125 -35 -244 -40 -290 -3 -30 -7 -71 -10
-90 -27 -237 -27 -916 1 -1245 2 -27 6 -77 8 -110 3 -33 7 -76 9 -95 3 -19 8
-64 12 -100 4 -36 9 -74 11 -85 2 -10 6 -37 10 -60 5 -39 42 -234 50 -265 4
-17 41 -159 54 -205 14 -52 40 -129 50 -147 6 -10 10 -22 10 -28 0 -6 10 -32
21 -58 12 -26 28 -63 36 -82 20 -46 55 -116 81 -161 38 -68 47 -83 55 -93 4
-6 25 -36 47 -66 71 -98 84 -113 175 -205 90 -90 157 -151 187 -170 8 -5 42
-28 74 -50 90 -61 90 -61 229 -129 72 -35 166 -76 210 -91 44 -15 89 -30 100
-35 23 -9 184 -47 235 -55 61 -10 114 -17 138 -18 12 -1 22 -3 22 -6 0 -10
401 -10 465 -1 33 4 80 11 105 14 25 4 52 8 60 10 8 1 33 6 55 11 115 23 317
86 367 115 10 5 25 10 33 10 8 0 15 5 15 10 0 6 6 10 13 10 6 0 41 16 77 35
36 19 72 38 80 42 19 8 187 122 220 148 57 46 250 245 300 310 30 39 59 73 65
77 5 4 6 8 1 8 -5 0 0 10 11 23 37 40 100 146 166 277 24 47 50 96 57 110 8
14 15 27 15 30 0 3 20 55 45 115 86 218 174 562 206 810 2 17 6 41 9 55 3 14
8 50 11 80 3 30 7 71 9 90 15 132 19 240 19 495 1 249 -3 361 -19 545 -2 19
-4 35 -5 35 0 0 -3 22 -5 48 -2 27 -6 60 -9 75 -4 15 -8 50 -11 77 -3 28 -7
61 -10 75 -2 13 -7 42 -10 65 -3 22 -9 49 -12 60 -4 11 -7 34 -8 50 -1 17 -3
30 -4 30 -2 0 -4 9 -6 20 -1 11 -5 31 -8 45 -3 14 -12 61 -21 105 -9 44 -22
98 -28 120 -14 47 -12 40 -22 90 -4 22 -11 44 -14 50 -4 5 -7 15 -7 20 0 6 -9
37 -19 70 -10 33 -19 65 -20 70 -3 15 -56 177 -66 200 -4 11 -22 58 -40 105
-18 47 -39 100 -49 119 -19 39 -78 91 -103 91 -9 0 -19 4 -22 9 -5 8 -120 13
-128 6z"/>
<path d="M21687 24493 c-2 -1 -50 -5 -108 -7 -57 -3 -104 -5 -104 -6 0 -1 -25
-3 -55 -5 -70 -4 -173 -13 -225 -21 -22 -3 -56 -7 -75 -9 -71 -8 -171 -33
-190 -48 -9 -7 -29 -30 -45 -51 l-30 -40 2 -175 c0 -97 4 -248 7 -336 4 -88 9
-225 11 -305 3 -80 7 -197 9 -260 3 -63 7 -194 10 -290 3 -96 8 -249 11 -340
3 -91 8 -219 10 -285 11 -289 16 -449 20 -580 2 -77 4 -140 5 -140 0 0 3 -72
5 -160 11 -354 15 -466 20 -600 8 -218 14 -377 20 -540 3 -82 8 -181 11 -220
3 -38 5 -76 5 -82 -2 -26 -1 -39 3 -88 2 -28 7 -88 10 -135 5 -75 15 -176 19
-205 1 -5 9 -23 18 -40 19 -36 72 -57 144 -55 57 1 157 7 165 10 3 1 10 1 15
0 22 -5 95 -3 101 2 3 4 18 2 34 -2 16 -4 31 -5 34 -2 8 7 113 5 126 -3 6 -3
10 -2 10 2 0 5 15 8 33 6 75 -8 103 -9 120 -1 9 5 17 5 17 1 0 -4 55 -9 123
-9 67 -1 212 -5 322 -9 300 -12 306 -11 342 10 58 34 57 22 56 556 -1 376 1
488 10 482 7 -3 44 -32 82 -63 39 -31 98 -76 133 -100 34 -24 62 -48 62 -52 0
-4 5 -8 11 -8 6 0 28 -13 49 -30 21 -16 42 -30 48 -30 6 0 12 -4 14 -9 3 -8
166 -121 175 -121 2 0 19 -11 37 -25 18 -14 38 -25 44 -25 7 0 12 -4 12 -8 0
-5 15 -16 33 -25 17 -10 46 -26 62 -37 34 -21 79 -47 112 -64 13 -6 23 -14 23
-18 0 -5 5 -8 11 -8 6 0 41 -17 77 -39 58 -33 164 -90 322 -172 25 -13 48 -22
52 -21 3 1 12 -5 18 -13 7 -8 19 -15 26 -15 7 0 29 -9 48 -20 100 -56 245 -62
341 -15 66 32 185 114 185 127 0 4 6 8 14 8 8 0 23 11 34 25 11 14 22 25 25
25 24 0 343 325 431 438 11 15 29 36 39 47 25 26 99 140 125 190 20 40 25 66
23 118 -1 30 -73 117 -97 117 -8 0 -14 5 -14 10 0 6 -9 10 -19 10 -11 0 -22 4
-25 9 -3 5 -18 12 -33 16 -15 3 -39 15 -55 26 -15 11 -28 17 -28 14 0 -3 -12
2 -27 12 -16 11 -57 34 -91 52 -35 18 -87 46 -115 61 -29 16 -83 45 -120 65
-38 20 -86 47 -108 60 -21 14 -41 25 -43 25 -3 0 -57 31 -120 69 -64 38 -116
66 -116 63 0 -4 -4 -2 -8 3 -6 9 -51 39 -103 70 -10 6 -38 25 -63 43 -26 17
-49 32 -52 32 -5 0 -147 101 -154 110 -3 4 -13 11 -22 16 -28 15 -138 116
-138 126 0 5 65 76 144 156 335 341 550 568 680 716 28 32 60 68 71 80 31 35
134 157 202 242 17 21 65 84 107 139 42 55 79 105 83 110 95 123 242 410 259
505 3 14 11 48 19 75 8 28 12 67 10 88 -4 44 -53 113 -104 148 -19 13 -39 29
-45 34 -6 6 -33 26 -61 45 -27 19 -52 38 -55 41 -19 25 -490 314 -490 302 0
-3 -8 1 -18 10 -19 17 -199 92 -242 101 -14 3 -36 8 -50 11 -56 14 -119 12
-143 -4 -54 -36 -95 -81 -144 -159 -29 -46 -53 -86 -53 -88 0 -3 -13 -25 -30
-49 -16 -24 -30 -46 -30 -49 0 -2 -17 -31 -37 -63 -21 -32 -43 -67 -50 -78 -6
-11 -46 -74 -88 -140 -42 -66 -82 -129 -88 -140 -7 -11 -14 -22 -17 -25 -3 -3
-36 -52 -75 -110 -38 -58 -74 -110 -80 -117 -5 -7 -16 -19 -22 -27 -7 -8 -13
-18 -13 -22 0 -3 -10 -18 -22 -33 -13 -15 -32 -40 -43 -55 -29 -40 -119 -160
-125 -166 -3 -3 -23 -27 -44 -55 -22 -27 -44 -54 -50 -60 -6 -5 -28 -30 -48
-55 -60 -74 -84 -100 -197 -215 -111 -113 -210 -205 -220 -205 -4 0 -7 39 -8
88 -1 48 -4 175 -8 282 -3 107 -8 265 -10 350 -2 85 -7 232 -10 325 -3 94 -7
312 -10 485 -3 173 -7 324 -9 335 -3 11 -5 25 -5 30 -1 6 -14 25 -30 43 -17
17 -27 32 -23 32 20 1 -84 40 -121 46 -40 6 -784 13 -790 7z"/>
<path d="M7717 24443 c-4 -3 -73 -7 -154 -9 -153 -2 -361 -12 -448 -20 -27 -2
-70 -6 -95 -9 -285 -25 -353 -73 -346 -241 2 -43 8 -104 14 -134 6 -30 13 -68
16 -85 3 -16 8 -39 10 -50 10 -53 20 -112 21 -135 2 -14 3 -25 4 -25 2 0 4
-17 6 -38 2 -21 6 -55 10 -75 4 -20 9 -50 11 -67 4 -34 22 -162 30 -215 3 -19
7 -51 10 -70 2 -19 6 -44 8 -55 7 -28 19 -135 20 -167 1 -16 3 -28 6 -28 3 0
6 -15 7 -32 1 -18 3 -46 6 -63 3 -16 8 -55 12 -85 3 -30 8 -66 10 -80 2 -14 6
-45 10 -70 3 -25 10 -76 15 -115 5 -38 12 -89 15 -111 3 -23 8 -61 10 -85 8
-79 13 -123 19 -154 2 -16 8 -57 11 -90 3 -33 8 -73 10 -90 2 -16 7 -51 10
-77 3 -27 7 -67 10 -90 3 -24 7 -59 10 -78 2 -19 7 -62 10 -95 4 -33 9 -76 10
-95 2 -19 4 -35 5 -35 1 0 3 -22 6 -50 2 -27 6 -66 8 -85 2 -19 7 -62 10 -95
4 -33 9 -80 12 -105 12 -107 15 -138 19 -195 2 -33 4 -60 5 -60 1 0 3 -18 5
-40 3 -49 14 -176 21 -230 2 -22 6 -74 9 -115 2 -41 5 -75 6 -75 0 0 2 -16 4
-35 1 -19 5 -73 9 -120 25 -313 40 -552 51 -815 8 -177 16 -214 54 -253 29
-29 30 -29 138 -26 59 1 149 5 198 8 50 3 131 8 180 11 50 3 106 7 125 10 19
2 75 7 124 10 49 3 93 8 97 11 5 3 9 0 9 -6 0 -7 5 -8 13 -3 6 4 26 8 42 9 17
1 60 4 96 7 91 8 307 18 464 21 193 4 232 17 267 84 21 40 25 59 22 122 -2 79
-10 160 -19 214 -3 17 -8 56 -10 86 -6 76 -15 176 -21 230 -3 25 -7 65 -9 90
-3 25 -7 70 -10 100 -5 53 -8 78 -21 205 -3 33 -7 76 -9 95 -3 50 -15 158 -21
203 -4 31 -2 37 13 38 104 7 558 19 813 22 l225 2 -1 -190 c0 -104 -4 -244 -8
-310 -15 -234 -18 -312 -18 -450 0 -77 2 -165 5 -195 3 -30 6 -64 6 -75 1 -29
50 -81 91 -98 54 -21 138 -40 250 -53 83 -11 95 -12 95 -14 0 -1 23 -3 50 -6
28 -3 68 -7 90 -9 181 -20 759 -27 930 -12 239 22 268 65 291 417 1 25 5 83 8
130 7 107 16 271 21 375 2 44 7 132 10 195 4 63 8 156 10 205 2 50 7 142 10
205 4 63 8 147 10 185 6 125 18 291 30 430 3 33 8 92 11 130 3 39 7 90 9 115
2 25 6 82 10 125 3 44 8 98 10 120 3 22 7 74 10 115 3 41 8 93 10 115 3 22 7
67 10 100 2 33 7 103 11 155 4 52 8 105 8 118 0 12 2 22 6 22 3 0 5 21 6 48 1
49 12 197 14 197 1 0 3 27 5 60 2 33 7 83 10 110 3 28 8 76 10 108 2 31 6 76
9 100 3 23 8 74 11 112 3 39 8 90 11 115 9 66 12 97 18 177 3 40 8 87 11 105
2 18 7 56 11 83 8 57 8 101 1 130 -3 11 -6 22 -6 25 -2 11 -58 67 -82 82 -33
21 -132 50 -162 48 -12 -1 -24 -1 -27 0 -3 1 -21 3 -40 4 -60 5 -213 18 -250
21 -19 2 -78 7 -130 11 -52 3 -115 8 -140 10 -297 24 -692 23 -877 -1 -102
-13 -150 -35 -170 -76 -6 -13 -14 -110 -18 -224 -11 -288 -24 -527 -40 -750
-3 -38 -8 -104 -10 -145 -3 -41 -7 -106 -10 -145 -3 -38 -7 -104 -9 -145 -3
-41 -7 -109 -11 -150 -3 -41 -8 -102 -10 -135 -14 -180 -17 -210 -22 -215 -2
-3 -93 -6 -201 -7 -225 -1 -563 -15 -717 -28 -33 -3 -91 -8 -130 -10 -38 -3
-107 -8 -152 -11 -66 -5 -83 -3 -84 7 -1 8 -3 28 -4 44 -2 17 -6 59 -9 95 -3
36 -8 74 -10 85 -2 11 -7 56 -10 100 -4 44 -9 100 -12 125 -3 25 -7 61 -9 80
-3 19 -7 64 -10 100 -3 36 -8 76 -10 90 -3 14 -8 56 -11 93 -3 37 -7 78 -10
90 -2 12 -6 45 -9 72 -3 28 -7 66 -10 85 -3 19 -7 60 -11 90 -3 30 -8 71 -10
90 -3 19 -7 49 -9 65 -4 34 -13 100 -21 165 -4 25 -8 61 -9 80 -2 19 -4 35 -5
35 -3 0 -9 40 -14 90 -3 28 -7 61 -10 75 -2 14 -7 45 -10 70 -4 25 -8 56 -10
70 -3 14 -10 61 -16 105 -12 80 -17 106 -20 115 -1 3 -2 9 -1 13 1 4 -6 10
-14 13 -8 4 -15 11 -15 18 0 23 -70 69 -126 82 -42 10 -457 11 -471 1 -6 -4
-14 -4 -17 1 -3 6 -21 7 -38 3 -39 -8 -49 -8 -64 1 -6 4 -14 5 -17 1z"/>
<path d="M18308 24355 c-2 -1 -34 -5 -71 -9 -92 -8 -162 -19 -222 -31 -5 -2
-37 -8 -70 -15 -33 -7 -116 -30 -185 -52 -69 -23 -126 -40 -127 -40 -7 1 -251
-123 -275 -139 -15 -11 -28 -17 -28 -12 0 4 -4 3 -8 -2 -4 -6 -41 -33 -82 -60
-41 -27 -79 -55 -83 -62 -4 -7 -12 -13 -17 -13 -6 0 -18 -8 -29 -17 -10 -10
-34 -29 -52 -43 -42 -31 -284 -273 -321 -320 -14 -19 -35 -45 -45 -58 -41 -51
-56 -70 -108 -144 -30 -43 -51 -78 -47 -78 4 0 2 -4 -3 -8 -15 -10 -75 -107
-75 -120 0 -5 -3 -12 -7 -14 -11 -4 -93 -170 -93 -186 0 -6 -4 -12 -10 -12 -5
0 -10 -6 -10 -14 0 -7 -11 -38 -23 -67 -52 -119 -122 -342 -143 -453 -2 -16
-7 -32 -9 -36 -2 -3 -7 -29 -11 -56 -3 -27 -8 -52 -10 -55 -2 -4 -6 -31 -10
-60 -3 -30 -8 -65 -10 -79 -24 -136 -24 -567 1 -700 2 -14 7 -47 11 -75 10
-82 12 -92 20 -127 4 -18 8 -35 9 -38 1 -3 7 -32 14 -64 16 -74 84 -281 105
-321 9 -16 16 -33 16 -37 0 -9 72 -161 80 -168 3 -3 12 -18 20 -35 50 -103
185 -279 283 -371 106 -99 264 -223 315 -247 12 -5 22 -14 22 -18 0 -4 11 -10
25 -13 14 -4 25 -11 25 -16 0 -6 5 -10 11 -10 6 0 36 -15 67 -33 52 -30 182
-92 257 -122 17 -7 48 -20 70 -29 22 -9 51 -18 64 -21 12 -2 28 -8 35 -13 9
-8 42 -19 81 -27 6 -2 31 -10 57 -18 26 -9 57 -19 70 -22 13 -2 70 -16 128
-30 58 -14 119 -28 135 -30 17 -3 53 -9 80 -15 28 -6 73 -13 100 -16 28 -3 63
-7 78 -9 195 -22 338 -22 567 0 25 2 45 5 45 5 0 1 11 3 25 5 14 1 39 5 55 8
17 4 46 9 65 12 50 8 283 66 295 73 6 4 15 7 22 8 21 3 147 46 158 54 6 3 33
15 60 24 54 20 326 153 335 164 3 4 43 33 90 64 134 90 242 179 318 261 36 40
53 93 51 157 -4 95 -19 158 -114 475 -15 50 -28 96 -28 103 0 6 -4 12 -9 12
-4 0 -7 3 -6 8 1 4 -7 34 -17 67 -10 33 -19 62 -20 65 -1 3 -7 25 -14 50 -6
25 -15 52 -18 60 -3 8 -7 20 -8 25 -2 6 -9 30 -16 55 -7 25 -13 48 -15 53 -1
4 -2 8 -3 10 -2 1 -4 12 -7 24 -7 38 -44 109 -68 132 -38 36 -76 41 -136 20
-29 -10 -64 -26 -79 -36 -14 -10 -29 -16 -33 -15 -5 1 -8 -2 -8 -8 0 -5 -6
-10 -13 -10 -7 0 -22 -8 -33 -18 -10 -10 -34 -25 -51 -32 -18 -8 -33 -19 -33
-23 0 -5 -4 -6 -9 -2 -5 3 -12 1 -15 -4 -6 -8 -249 -131 -260 -131 -3 0 -29
-11 -58 -24 -107 -49 -290 -111 -403 -136 -27 -7 -59 -14 -70 -16 -11 -3 -33
-7 -50 -9 -16 -2 -30 -4 -30 -5 0 -2 -16 -4 -125 -19 -56 -7 -182 -6 -257 3
-184 22 -377 105 -492 211 -90 83 -180 252 -206 388 -3 10 -6 26 -9 35 -15 49
-23 258 -13 362 8 81 22 157 43 235 3 11 7 29 9 40 2 11 15 48 29 83 13 34 21
62 18 62 -4 0 -2 4 3 8 6 4 25 36 43 72 63 127 109 190 196 270 47 44 124 100
138 100 4 0 19 5 35 12 56 23 107 25 176 4 46 -13 70 -29 115 -74 45 -45 113
-151 117 -182 1 -3 10 -34 22 -70 30 -92 39 -142 47 -275 3 -39 10 -92 17
-118 20 -80 90 -133 174 -130 30 1 136 12 170 18 17 3 51 7 77 9 26 2 59 7 75
10 56 11 138 22 248 32 74 7 320 2 320 -6 0 -1 22 -3 50 -6 27 -2 65 -8 84
-14 19 -5 38 -7 43 -4 4 3 8 1 8 -4 0 -5 10 -8 21 -7 12 1 45 -4 73 -10 96
-22 160 17 191 117 25 80 23 57 40 403 6 118 5 423 -1 475 -2 25 -7 63 -9 85
-2 22 -4 40 -5 40 -1 0 -3 11 -5 25 -10 77 -85 304 -105 320 -4 3 -9 13 -13
23 -9 24 -111 177 -136 204 -12 12 -21 25 -21 28 0 16 -196 200 -270 253 -47
34 -90 66 -97 72 -25 20 -221 118 -288 142 -60 23 -155 52 -205 64 -111 25
-182 38 -260 48 -25 3 -56 9 -70 12 -25 5 -446 14 -452 9z"/>
<path d="M32227 24204 c-1 -1 -47 -5 -102 -9 -110 -8 -160 -13 -160 -15 0 0
-20 -3 -45 -5 -88 -8 -155 -15 -180 -20 -13 -2 -42 -7 -65 -10 -22 -3 -65 -10
-95 -15 -81 -14 -111 -19 -154 -25 -21 -4 -48 -9 -60 -11 -11 -3 -46 -10 -76
-15 -77 -16 -85 -17 -85 -19 0 -1 -9 -3 -20 -5 -11 -2 -27 -5 -35 -8 -8 -2
-28 -7 -45 -11 -78 -20 -239 -71 -320 -103 -189 -75 -253 -146 -265 -298 -3
-27 -4 -198 -4 -380 1 -286 4 -436 19 -840 2 -44 6 -188 10 -320 4 -132 9
-287 10 -345 5 -172 20 -613 30 -875 11 -297 30 -726 40 -895 3 -41 7 -133 10
-205 10 -236 15 -297 29 -345 13 -45 49 -110 75 -137 36 -35 129 -75 208 -89
15 -3 35 -7 44 -10 42 -12 177 -18 439 -18 303 -1 400 5 500 28 14 3 36 8 50
10 59 9 214 65 245 88 112 82 155 170 132 273 -9 42 -26 184 -33 282 -2 32 -6
81 -8 108 -15 188 -18 241 -22 325 -2 52 -6 136 -9 185 -6 118 -12 275 -9 275
1 0 37 -62 80 -137 43 -76 91 -157 106 -179 15 -23 28 -47 28 -53 0 -6 3 -11
8 -11 4 0 18 -23 31 -50 14 -28 29 -50 33 -50 4 0 8 -7 8 -15 0 -8 3 -15 8
-15 4 0 13 -15 21 -32 8 -18 17 -35 21 -38 3 -3 34 -50 67 -105 33 -55 74
-121 92 -146 17 -26 31 -52 31 -58 0 -6 4 -11 9 -11 5 0 14 -13 21 -30 7 -16
16 -30 21 -30 5 0 9 -6 9 -13 0 -7 9 -23 20 -35 11 -12 20 -24 20 -27 0 -6
132 -204 158 -238 9 -11 29 -33 44 -49 14 -15 24 -28 21 -28 -12 0 87 -62 104
-65 10 -2 18 -4 18 -5 0 -4 47 -12 103 -17 35 -3 91 0 125 7 34 6 69 12 77 14
15 3 91 19 100 21 3 1 18 7 33 13 16 7 34 12 42 12 8 0 17 5 20 10 3 6 14 10
24 10 31 0 244 111 338 176 115 80 230 183 313 280 49 57 110 158 110 182 0
14 -16 42 -37 67 -21 22 -63 70 -93 105 -96 110 -131 149 -315 345 -111 119
-121 130 -210 230 -33 38 -64 73 -70 79 -5 6 -28 34 -50 61 -21 28 -42 52 -45
55 -14 12 -122 162 -165 229 -37 58 -45 75 -34 82 8 5 18 9 23 9 27 0 267 136
341 192 66 50 204 182 255 243 38 45 120 165 120 175 0 4 3 10 8 12 9 4 85
160 97 198 11 36 25 87 25 92 0 4 7 26 15 48 8 22 14 41 14 43 -1 1 2 18 6 37
3 19 8 53 11 75 9 62 11 369 3 380 -4 6 -10 28 -13 50 -2 22 -7 47 -10 55 -3
8 -7 29 -9 45 -6 43 -64 210 -93 268 -13 27 -24 55 -24 63 0 8 -3 14 -8 14 -4
0 -13 14 -20 30 -15 32 -106 175 -125 195 -7 7 -19 23 -27 36 -43 65 -216 225
-325 300 -96 65 -224 134 -335 179 -30 12 -64 26 -75 30 -20 9 -82 29 -145 48
-53 16 -151 40 -190 46 -19 3 -46 8 -60 11 -27 5 -86 14 -135 20 -16 2 -55 7
-85 10 -51 7 -527 14 -533 9z m389 -1158 c88 -11 190 -59 241 -114 30 -33 58
-95 79 -177 12 -49 14 -65 18 -168 9 -226 -71 -375 -247 -461 -40 -19 -85 -38
-98 -40 -13 -3 -24 -5 -24 -6 0 -2 -19 -6 -77 -15 -68 -12 -419 -11 -426 0 -4
6 -8 26 -9 45 -3 49 -4 750 -1 835 l3 69 35 8 c19 4 58 10 85 12 28 3 50 6 50
6 0 1 27 4 60 7 33 3 61 6 63 7 4 4 202 -2 248 -8z"/>
<path d="M15437 24153 c-2 -1 -70 -4 -152 -7 -145 -6 -213 -9 -450 -21 -60 -3
-148 -8 -195 -10 -47 -2 -119 -7 -162 -9 -210 -14 -277 -19 -323 -21 -27 -2
-86 -6 -130 -9 -44 -4 -107 -9 -140 -11 -33 -3 -87 -7 -120 -11 -95 -9 -136
-13 -205 -18 -36 -3 -90 -9 -120 -12 -30 -4 -73 -8 -95 -10 -22 -1 -60 -5 -85
-9 -25 -3 -61 -8 -80 -10 -19 -2 -54 -6 -76 -9 -23 -4 -61 -9 -85 -11 -24 -2
-59 -7 -77 -9 -111 -17 -108 -16 -187 -31 -50 -10 -139 -38 -149 -47 -6 -4
-18 -8 -28 -8 -10 0 -18 -4 -18 -9 0 -5 -10 -11 -22 -13 -12 -2 -33 -19 -46
-38 -22 -33 -23 -42 -18 -135 6 -114 11 -170 20 -211 3 -16 8 -60 12 -99 3
-38 8 -86 10 -105 2 -19 6 -66 9 -105 3 -38 8 -90 11 -115 3 -25 7 -74 10
-110 2 -36 6 -90 8 -120 3 -30 7 -91 10 -135 4 -44 8 -102 11 -130 2 -27 7
-88 10 -135 3 -47 8 -110 11 -140 2 -30 7 -91 9 -135 3 -44 7 -107 10 -140 6
-72 14 -183 21 -285 14 -216 20 -315 29 -435 3 -38 7 -105 10 -147 6 -103 14
-219 20 -298 3 -36 7 -108 10 -160 3 -52 7 -117 10 -145 5 -60 13 -168 20
-285 2 -47 7 -116 10 -155 3 -38 8 -101 10 -140 13 -195 23 -232 72 -254 89
-42 108 -44 358 -47 121 -1 283 -5 360 -8 262 -12 390 -16 635 -22 135 -3 250
-5 255 -5 6 0 54 1 107 1 53 1 102 -1 107 -5 6 -3 11 -3 11 2 0 4 60 8 133 9
185 1 392 13 485 29 21 4 50 8 66 10 98 14 183 71 219 147 17 36 23 88 32 263
3 61 7 144 10 185 20 336 23 449 11 468 -4 7 -5 12 -1 12 11 0 -26 75 -47 94
-21 20 -33 20 -447 18 -504 -3 -843 -12 -938 -27 -18 -3 -33 -2 -34 3 -19 174
-26 489 -12 503 13 13 260 21 643 23 179 0 332 3 340 6 35 12 68 75 76 145 16
137 26 867 12 905 -10 30 -35 50 -73 59 -29 7 -657 -2 -912 -13 -73 -3 -73 -3
-74 23 0 14 -3 58 -5 96 -8 119 -9 227 -3 230 3 2 68 7 145 10 76 3 182 7 234
9 405 18 583 23 865 27 177 2 204 4 236 22 61 32 88 106 94 250 2 39 4 72 5
72 1 0 3 29 4 65 2 36 7 124 12 195 4 72 8 229 9 350 0 191 -2 226 -18 268
-28 71 -49 81 -179 82 -60 0 -110 -1 -111 -2z"/>
<path d="M37877 24153 c-2 -1 -72 -4 -157 -8 -85 -3 -202 -8 -260 -11 -58 -2
-145 -7 -195 -9 -114 -5 -269 -14 -365 -20 -41 -3 -115 -8 -165 -11 -49 -2
-119 -7 -155 -10 -36 -2 -92 -6 -125 -9 -33 -2 -85 -6 -115 -9 -48 -5 -113
-10 -255 -22 -22 -1 -40 -3 -40 -4 0 0 -22 -3 -50 -5 -27 -1 -79 -6 -115 -10
-108 -11 -153 -16 -190 -20 -19 -2 -57 -6 -85 -9 -27 -3 -65 -8 -83 -11 -18
-4 -57 -8 -85 -11 -29 -2 -61 -6 -73 -9 -11 -2 -45 -7 -75 -11 -30 -3 -58 -9
-63 -12 -5 -3 -22 -6 -38 -8 -43 -5 -167 -45 -174 -55 -3 -5 -10 -7 -15 -4 -5
4 -9 1 -9 -4 0 -6 -3 -10 -7 -9 -25 7 -87 -61 -82 -89 1 -4 0 -12 -1 -18 -6
-31 3 -154 17 -220 3 -16 7 -50 9 -75 2 -25 4 -45 5 -45 1 0 3 -16 4 -35 2
-31 6 -74 21 -210 2 -19 6 -71 9 -115 3 -44 8 -100 11 -125 3 -25 7 -81 9
-125 3 -44 7 -100 10 -125 3 -25 8 -80 10 -122 3 -42 7 -97 9 -122 3 -25 8
-87 11 -138 3 -51 8 -120 10 -153 3 -33 7 -94 10 -135 2 -41 7 -102 9 -135 7
-75 16 -208 22 -300 6 -104 12 -200 19 -295 4 -47 9 -116 11 -155 2 -38 6 -99
9 -135 2 -36 7 -99 9 -140 3 -41 8 -111 11 -155 3 -44 8 -118 11 -165 2 -47 7
-110 9 -140 3 -30 7 -98 10 -150 3 -52 8 -120 10 -150 3 -30 7 -96 10 -146 10
-170 16 -193 56 -231 51 -47 108 -55 399 -59 124 -1 275 -5 335 -8 270 -13
459 -18 855 -26 107 -2 598 9 675 15 285 21 362 40 431 102 45 40 75 106 79
172 2 31 6 106 10 166 7 120 9 158 21 375 14 273 3 350 -56 387 -26 17 -55 18
-357 16 -496 -3 -882 -13 -1005 -28 -35 -4 -48 -2 -49 7 -1 7 -2 27 -4 43 -6
53 -17 279 -15 300 1 11 1 27 1 35 -2 47 1 115 5 122 3 5 22 9 42 8 20 0 60 2
87 5 28 2 227 5 444 5 348 1 398 3 422 17 23 14 50 54 55 83 0 3 4 21 7 40 6
28 19 265 17 318 0 16 0 44 4 339 3 226 1 255 -14 281 -24 39 -71 50 -211 46
-63 -2 -229 -5 -369 -8 -140 -3 -301 -7 -358 -9 -57 -2 -105 0 -108 5 -10 16
-22 333 -13 343 4 4 64 7 404 20 50 2 155 6 235 10 169 8 340 12 605 15 230 3
259 11 293 83 26 54 32 87 38 187 10 183 14 250 19 320 13 207 18 453 11 545
-6 71 -20 108 -52 138 -33 32 -34 32 -139 32 -59 0 -107 -1 -108 -2z"/>
<path d="M41547 24154 c-1 -1 -69 -5 -150 -8 -82 -3 -197 -8 -255 -11 -59 -3
-145 -8 -192 -10 -47 -2 -128 -6 -180 -9 -52 -3 -140 -8 -195 -11 -55 -2 -125
-7 -155 -10 -30 -3 -98 -8 -150 -10 -52 -2 -122 -7 -155 -11 -33 -3 -82 -7
-110 -9 -27 -2 -88 -7 -135 -12 -47 -4 -97 -7 -112 -8 -16 0 -28 -2 -28 -5 0
-3 -21 -5 -48 -6 -26 0 -76 -4 -112 -8 -36 -4 -87 -9 -115 -11 -27 -2 -50 -4
-50 -5 0 -1 -16 -3 -35 -5 -48 -4 -150 -16 -170 -20 -14 -3 -97 -13 -159 -21
-40 -4 -103 -14 -131 -20 -14 -3 -37 -7 -52 -9 -15 -2 -37 -9 -48 -15 -11 -6
-20 -8 -20 -5 0 3 -17 -2 -37 -11 -21 -9 -42 -17 -48 -18 -23 -5 -84 -39 -98
-54 -30 -34 -41 -134 -23 -227 7 -38 17 -118 22 -170 6 -62 12 -120 14 -120 0
0 3 -27 5 -60 3 -33 7 -87 10 -120 4 -33 8 -82 10 -110 2 -27 6 -77 9 -110 4
-33 9 -94 12 -135 2 -41 7 -100 9 -130 3 -30 7 -89 10 -130 3 -41 7 -97 10
-125 5 -54 15 -184 21 -280 7 -114 13 -200 18 -275 7 -94 15 -204 21 -295 2
-38 6 -97 9 -130 3 -33 8 -100 11 -150 3 -49 8 -130 11 -180 4 -49 7 -109 7
-132 1 -24 4 -43 7 -43 3 0 5 -28 6 -63 1 -58 10 -225 19 -347 3 -30 7 -91 10
-135 5 -78 11 -177 20 -300 2 -33 7 -103 10 -155 7 -127 12 -150 44 -183 56
-61 105 -70 411 -73 118 -1 269 -5 335 -8 191 -10 382 -16 638 -21 132 -2 240
-5 242 -7 2 -2 34 -1 70 2 36 3 71 2 78 -2 6 -3 15 -4 19 -2 5 3 102 7 216 10
204 4 255 6 382 18 69 7 93 10 150 22 19 4 43 7 53 8 9 0 17 5 17 10 0 5 3 7
6 3 8 -8 83 40 106 67 38 46 57 101 62 186 6 91 13 210 22 380 9 152 10 421 2
446 -11 35 -31 62 -56 76 -41 22 -1113 9 -1374 -16 l-37 -4 2 39 c2 22 0 39
-3 39 -3 0 -6 28 -6 63 -1 34 -4 90 -5 125 -2 34 0 62 4 62 5 0 5 6 0 13 -9
15 -11 125 -2 152 3 11 15 21 25 22 108 10 246 13 564 13 282 0 381 3 400 13
39 20 68 83 75 162 3 39 8 149 10 245 2 96 5 175 6 175 0 0 2 101 3 224 1 248
-3 270 -57 293 -38 15 -101 15 -899 -5 -60 -1 -108 0 -109 3 -8 47 -17 340
-10 344 3 2 71 7 151 10 80 4 199 9 265 12 66 3 165 7 220 9 92 4 421 13 710
18 116 3 122 4 152 31 54 48 69 100 78 271 3 61 8 135 10 165 12 157 18 326
19 510 0 191 -1 208 -22 250 -32 66 -50 74 -175 75 -59 0 -109 0 -110 -1z"/>
</g>
</svg>
