<svg width="24" height="24" viewBox="0 0 24 24" fill="none" xmlns="http://www.w3.org/2000/svg">
<g clip-path="url(#clip0_2_1424)">
<path d="M6.6343 6.62684C8.21453 5.59998 10.0456 4.83704 11.9999 4.83704C16.441 4.83704 20.2454 8.77675 21.9168 10.8003C22.1807 11.1294 22.3269 11.5569 22.3269 12.0002C22.3269 12.4434 22.1807 12.8709 21.9168 13.2C20.9955 14.3154 19.426 16.0131 17.4592 17.3122M14.3876 18.7965C13.6198 19.0288 12.8207 19.1633 11.9999 19.1633C7.55886 19.1633 3.75449 15.2236 2.08311 13.2C1.81913 12.8709 1.673 12.4434 1.673 12.0002C1.673 11.5569 1.81913 11.1294 2.08311 10.8003C2.61265 10.1592 3.3563 9.32573 4.26649 8.48616" stroke="#D1D1D1" stroke-width="1.8" stroke-linecap="round" stroke-linejoin="round"/>
<path d="M14.2511 14.2512C15.4944 13.008 15.4944 10.9922 14.2511 9.74896C13.0078 8.50572 10.9921 8.50572 9.74887 9.74896" stroke="#D1D1D1" stroke-width="1.8" stroke-linecap="round" stroke-linejoin="round"/>
<path d="M22.3466 22.3467L1.65338 1.65344" stroke="#D1D1D1" stroke-width="1.8" stroke-linecap="round" stroke-linejoin="round"/>
</g>
<defs>
<clipPath id="clip0_2_1424">
<rect width="24" height="24" fill="white"/>
</clipPath>
</defs>
</svg>
