<svg width="24" height="24" viewBox="0 0 24 24" fill="none" xmlns="http://www.w3.org/2000/svg">
<path d="M21.9168 10.8002C22.1808 11.1293 22.3269 11.5568 22.3269 12C22.3269 12.4433 22.1808 12.8708 21.9168 13.1999C20.2455 15.2235 16.4411 19.1631 12 19.1631C7.55889 19.1631 3.75452 15.2235 2.08314 13.1999C1.81916 12.8708 1.67303 12.4433 1.67303 12C1.67303 11.5568 1.81916 11.1293 2.08314 10.8002C3.75452 8.77663 7.55889 4.83691 12 4.83691C16.4411 4.83691 20.2455 8.77663 21.9168 10.8002Z" stroke="#D1D1D1" stroke-width="1.8" stroke-linecap="round" stroke-linejoin="round"/>
<path d="M12 15.1835C13.7583 15.1835 15.1836 13.7582 15.1836 12C15.1836 10.2417 13.7583 8.81641 12 8.81641C10.2418 8.81641 8.81647 10.2417 8.81647 12C8.81647 13.7582 10.2418 15.1835 12 15.1835Z" stroke="#D1D1D1" stroke-width="1.8" stroke-linecap="round" stroke-linejoin="round"/>
</svg>
