<svg width="20" height="20" viewBox="0 0 20 20" fill="none" xmlns="http://www.w3.org/2000/svg">
<path d="M8.46266 14.0348L5 15.0044L5.96954 11.5417L12.3101 5.23201C12.3817 5.15872 12.4673 5.10048 12.5618 5.06073C12.6562 5.02097 12.7577 5.00049 12.8602 5.00049C12.9627 5.00049 13.0642 5.02097 13.1587 5.06073C13.2531 5.10048 13.3388 5.15872 13.4104 5.23201L14.7724 6.60168C14.8445 6.67321 14.9017 6.75832 14.9408 6.85208C14.9799 6.94585 15 7.04643 15 7.14801C15 7.24959 14.9799 7.35017 14.9408 7.44393C14.9017 7.5377 14.8445 7.62281 14.7724 7.69434L8.46266 14.0348Z" fill="#D1D1D1"/>
</svg>
