<svg width="15" height="15" viewBox="0 0 15 15" fill="none" xmlns="http://www.w3.org/2000/svg">
<path fill-rule="evenodd" clip-rule="evenodd" d="M7.19986 0.989136C6.6318 0.989136 6.68558 1.5441 6.68558 1.5441V9.25838C6.68558 9.25838 6.87308 11.8293 5.657 11.8293C4.11415 11.8293 3.59984 9.23344 3.59984 10.8007C3.59984 12.368 3.32793 13.887 5.14272 13.887C6.57764 13.887 7.56773 13.093 8.02146 11.7847C8.09056 11.5855 8.11471 11.374 8.11471 11.1632V11.3394V2.67986C8.3754 2.73489 8.63088 2.81083 8.87823 2.90702C9.4446 3.12727 9.95517 3.44856 10.3823 3.84959C10.8093 4.25049 11.1443 4.72289 11.3716 5.23798C11.5988 5.75288 11.7147 6.30224 11.7147 6.85531C11.7147 7.40837 12.1752 7.88388 12.7432 7.88388C13.0928 7.88388 13.3713 7.25449 13.3713 6.68643C13.3713 5.84455 13.1984 5.40317 12.857 4.62929C12.5156 3.85561 12.3383 3.49251 11.7147 2.90702C11.0912 2.32167 10.5776 1.85777 9.77129 1.54419C8.96501 1.23064 8.06915 0.989136 7.19986 0.989136Z" fill="#3D3D3D"/>
<rect x="2.57138" y="8.74304" width="5.14286" height="5.14286" rx="2.57143" fill="#3D3D3D"/>
</svg>
