<svg width="40" height="40" viewBox="0 0 40 40" fill="none" xmlns="http://www.w3.org/2000/svg">
<path d="M24 19L24 29" stroke="black" stroke-width="1.5" stroke-linecap="round"/>
<path d="M24 11L24 14.6364" stroke="black" stroke-width="1.5" stroke-linecap="round"/>
<path d="M24 15C23.4696 15 22.9609 15.2107 22.5858 15.5858C22.2107 15.9609 22 16.4696 22 17C22 17.5304 22.2107 18.0391 22.5858 18.4142C22.9609 18.7893 23.4696 19 24 19C24.5304 19 25.0391 18.7893 25.4142 18.4142C25.7893 18.0391 26 17.5304 26 17C26 16.4696 25.7893 15.9609 25.4142 15.5858C25.0391 15.2107 24.5304 15 24 15Z" stroke="black" stroke-width="1.5" stroke-linecap="round"/>
<path d="M15 11L15 21" stroke="black" stroke-width="1.5" stroke-linecap="round"/>
<path d="M15 25.3633L15 28.9996" stroke="black" stroke-width="1.5" stroke-linecap="round"/>
<path d="M15 21C14.4696 21 13.9609 21.2107 13.5858 21.5858C13.2107 21.9609 13 22.4696 13 23C13 23.5304 13.2107 24.0391 13.5858 24.4142C13.9609 24.7893 14.4696 25 15 25C15.5304 25 16.0391 24.7893 16.4142 24.4142C16.7893 24.0391 17 23.5304 17 23C17 22.4696 16.7893 21.9609 16.4142 21.5858C16.0391 21.2107 15.5304 21 15 21Z" stroke="black" stroke-width="1.5" stroke-linecap="round"/>
</svg>
